<?xml version="1.0" standalone="no"?>
<!DOCTYPE svg PUBLIC "-//W3C//DTD SVG 20010904//EN"
 "http://www.w3.org/TR/2001/REC-SVG-20010904/DTD/svg10.dtd">
<svg version="1.0" xmlns="http://www.w3.org/2000/svg"
 width="149.980000pt" height="29.980000pt" viewBox="0 0 1425.000000 323.000000"
 preserveAspectRatio="xMidYMid meet">

<g transform="translate(0.000000,323.000000) scale(0.100000,-0.100000)"
fill="#000000" stroke="none">
<path d="M8969 3066 c-2 -2 -98 -11 -214 -20 -115 -9 -280 -23 -366 -31 -86
-8 -175 -15 -198 -15 -22 0 -41 -4 -41 -8 0 -13 28 -205 50 -342 12 -69 25
-156 30 -195 6 -38 18 -105 27 -147 l16 -78 56 5 c31 3 97 10 146 15 50 5 131
12 180 15 124 8 311 24 363 31 l44 5 -4 62 c-3 58 -1 62 20 65 12 2 22 6 22
10 0 4 -7 50 -15 102 -23 143 -54 345 -67 435 -12 80 -28 110 -49 91z m-5 -73
c3 -10 14 -79 26 -153 11 -74 27 -173 35 -220 18 -104 19 -139 3 -145 -7 -2
-134 -13 -283 -25 -148 -11 -309 -24 -358 -28 -48 -5 -91 -5 -95 -2 -8 5 -32
132 -52 280 -6 41 -16 112 -22 157 -6 46 -9 86 -5 89 5 5 205 27 310 34 4 0 7
-4 7 -10 0 -5 -13 -10 -30 -10 -32 0 -39 -16 -15 -34 18 -13 80 -409 64 -414
-5 -2 -9 -12 -9 -23 0 -17 6 -18 98 -12 103 6 129 16 100 37 -17 13 -27 59
-63 299 -15 100 -15 110 -1 126 17 19 10 32 -24 43 -16 6 162 24 252 27 46 1
58 -2 62 -16z"/>
<path d="M9216 2994 c-3 -38 -11 -154 -16 -259 -5 -104 -13 -216 -16 -247 -5
-49 -3 -58 10 -58 13 0 16 -12 16 -65 l0 -64 33 -5 c39 -6 558 -26 678 -26
l87 0 6 31 c3 17 6 44 6 58 0 15 5 32 11 38 5 5 14 84 19 174 6 90 15 228 21
307 6 79 8 146 5 149 -3 3 -110 9 -238 14 -128 4 -319 11 -424 15 l-192 7 -6
-69z m124 -3 c0 -11 5 -23 11 -27 20 -12 -10 -415 -32 -422 -5 -2 -9 -10 -9
-17 0 -17 50 -22 295 -31 234 -8 297 -15 303 -33 4 -11 -30 -12 -214 -6 -121
4 -273 10 -339 14 l-120 6 1 40 c1 82 26 480 30 487 3 5 21 8 40 8 27 0 34 -4
34 -19z m684 -11 c5 -5 4 -63 -2 -142 -7 -73 -15 -187 -18 -253 -4 -66 -11
-125 -16 -131 -5 -7 -18 -10 -29 -7 -18 5 -20 13 -18 77 2 69 2 71 -22 69 -30
-3 -355 -2 -389 1 -23 3 -25 6 -24 57 0 30 4 107 9 173 7 99 11 121 28 137 22
20 18 24 -38 33 -16 2 92 2 240 0 149 -3 274 -9 279 -14z"/>
<path d="M2320 3030 c-47 -4 -109 -12 -137 -19 l-53 -13 -2 -166 c-3 -160 -4
-167 -23 -165 -268 28 -748 25 -930 -5 l-100 -17 -5 -115 c-4 -82 -8 -114 -17
-113 -55 11 -318 23 -499 23 -188 0 -440 -12 -509 -25 -11 -2 -23 -4 -26 -4
-4 -1 -6 -403 -5 -893 l1 -893 50 -12 c170 -42 614 -48 895 -13 142 18 129 5
132 134 2 67 7 110 13 109 260 -42 670 -52 865 -20 58 9 116 18 130 20 l25 2
3 -215 c1 -118 6 -218 10 -221 9 -10 136 -27 264 -36 143 -11 475 -7 583 7 50
6 119 14 155 18 61 7 65 9 68 33 3 24 8 27 58 34 52 6 74 22 74 54 0 27 -41
51 -85 51 l-46 0 3 62 c3 63 3 63 32 60 72 -8 120 48 78 91 -15 14 -35 21 -64
22 l-43 1 -3 62 -3 62 50 0 c40 0 53 4 65 22 21 30 20 44 -4 68 -14 14 -33 20
-65 20 l-46 0 3 63 c3 62 3 62 32 59 73 -8 120 48 77 91 -16 17 -32 22 -66 20
l-45 -1 0 65 0 66 31 -7 c48 -9 99 24 99 65 0 25 -42 49 -84 49 -41 0 -45 2
-48 27 -2 16 -1 43 1 61 3 30 5 32 45 32 41 0 86 27 86 51 0 39 -54 71 -102
62 -25 -5 -26 -3 -30 52 -1 31 -1 61 2 66 3 4 24 7 47 6 46 -1 83 23 83 54 0
29 -49 61 -90 57 l-35 -3 -3 63 -3 62 46 0 c47 0 85 24 85 55 0 30 -38 55 -85
55 l-45 0 0 66 0 66 32 -4 c65 -10 108 23 93 71 -7 24 -57 42 -95 34 l-30 -5
0 66 0 66 45 0 c47 0 85 25 85 55 0 31 -38 55 -85 55 l-46 0 3 63 3 62 33 -3
c17 -2 32 -1 32 3 0 3 -16 21 -35 41 -32 32 -35 40 -35 94 l0 59 -52 10 c-146
29 -599 41 -838 21z m-67 -69 c5 -1 1 -8 -8 -18 -26 -25 -36 -61 -29 -103 5
-32 12 -41 37 -49 42 -15 67 -14 67 4 0 8 4 15 9 15 5 0 16 16 25 35 15 31 15
37 1 64 -8 17 -12 32 -7 34 13 8 162 6 166 -2 3 -4 1 -24 -4 -44 -11 -49 -4
-72 27 -93 43 -28 71 -25 98 11 26 33 33 79 15 90 -5 3 -10 13 -10 21 0 11 19
14 94 14 93 0 94 0 89 -22 -3 -13 -10 -29 -16 -35 -6 -9 -6 -18 2 -27 6 -7 9
-20 6 -28 -4 -9 7 -20 30 -31 48 -23 58 -22 87 11 33 38 40 69 22 104 -13 25
-13 29 1 34 8 4 30 4 48 1 17 -2 49 2 71 9 45 16 106 18 106 4 0 -5 -8 -10
-18 -10 -39 0 -69 -69 -51 -117 5 -13 22 -29 39 -34 34 -12 43 -35 38 -100 -2
-36 -8 -46 -29 -56 -34 -17 -47 -33 -50 -63 -5 -54 1 -70 34 -86 41 -21 47
-31 47 -76 0 -48 -8 -68 -30 -68 -23 0 -48 -29 -50 -60 -5 -56 1 -68 40 -94
41 -27 41 -27 38 -84 -3 -54 -5 -58 -36 -71 -30 -14 -39 -28 -43 -71 -4 -45 3
-60 34 -76 42 -22 47 -30 47 -86 0 -44 -2 -47 -37 -65 -28 -13 -39 -26 -43
-48 -9 -51 1 -75 42 -101 39 -25 39 -25 36 -82 -3 -54 -5 -58 -36 -71 -30 -14
-39 -28 -43 -71 -4 -47 2 -60 41 -80 38 -19 40 -23 40 -64 0 -56 -8 -76 -30
-76 -35 0 -57 -48 -52 -112 1 -10 20 -29 42 -43 41 -26 41 -26 38 -83 -3 -50
-6 -58 -29 -69 -39 -19 -50 -37 -51 -84 0 -33 5 -46 23 -60 13 -10 29 -19 35
-19 16 0 24 -24 24 -68 0 -45 -6 -55 -45 -73 -27 -13 -31 -20 -35 -69 l-5 -55
-45 -7 c-80 -12 -120 -10 -120 7 0 8 4 15 9 15 15 0 18 52 5 81 -19 38 -58 53
-94 34 -39 -20 -64 -68 -50 -94 17 -34 12 -58 -14 -63 -13 -3 -32 -1 -41 4
-10 6 -28 6 -47 -1 -40 -14 -78 -14 -78 0 0 6 8 24 17 39 23 40 4 102 -38 117
-17 7 -31 8 -35 2 -3 -5 -9 -7 -14 -4 -18 11 -51 -30 -52 -65 -1 -41 10 -80
23 -80 5 0 9 -4 9 -10 0 -5 -18 -7 -42 -4 -24 2 -69 6 -101 8 -67 5 -73 8 -54
27 25 25 27 61 6 95 -23 38 -46 46 -87 28 -35 -14 -64 -69 -51 -95 12 -24 -4
-41 -34 -33 -25 6 -27 10 -27 63 0 52 3 59 30 79 25 19 30 30 30 62 0 34 -4
42 -30 55 -29 15 -30 17 -30 90 0 51 4 75 12 75 28 0 48 33 48 79 0 41 -4 49
-30 64 -29 17 -30 21 -30 86 0 63 2 69 30 89 25 19 30 30 30 62 0 34 -4 42
-30 55 -29 15 -30 17 -30 90 0 51 4 75 12 75 28 0 48 33 48 82 0 26 -4 48 -10
48 -5 0 -19 9 -30 20 -16 16 -20 33 -20 83 0 59 2 65 30 85 25 19 30 30 30 62
0 34 -4 42 -30 55 -29 15 -30 17 -30 90 0 51 4 75 12 75 28 0 48 33 48 82 0
26 -4 48 -8 48 -5 0 -18 9 -30 20 -18 17 -22 32 -22 84 0 58 2 64 30 84 24 19
30 30 30 62 0 31 -5 42 -22 51 -34 18 -38 28 -38 95 0 55 2 62 30 82 26 20 30
29 30 72 0 44 -3 50 -27 62 -26 12 -28 17 -31 88 -3 70 -1 76 20 86 13 6 34 9
48 8 14 -1 29 -3 33 -3z m-1069 -361 c-4 -19 -2 -30 5 -30 6 0 11 -7 11 -15 0
-8 7 -15 15 -15 7 0 18 -8 24 -17 9 -17 10 -17 28 0 11 9 27 17 36 17 17 0 22
20 18 68 -2 21 1 22 80 22 78 0 81 -1 76 -21 -7 -25 19 -69 39 -69 7 0 17 -8
23 -17 9 -17 10 -17 28 0 11 9 24 17 30 17 12 0 26 48 21 71 -2 11 16 15 85
17 87 3 88 2 82 -19 -8 -25 12 -69 31 -69 7 0 17 -8 23 -17 9 -17 10 -17 28 0
11 9 25 17 32 17 16 0 31 43 24 69 -5 20 -2 21 77 21 79 0 82 -1 77 -21 -7
-25 19 -69 39 -69 11 0 14 -20 14 -93 0 -85 -2 -93 -22 -102 -30 -14 -41 -61
-21 -91 8 -13 22 -24 29 -24 14 0 16 -7 16 -80 0 -96 -1 -100 -21 -100 -22 0
-26 -4 -35 -42 -5 -21 0 -33 22 -55 25 -25 30 -38 34 -102 6 -84 1 -114 -18
-107 -15 6 -29 -10 -37 -44 -6 -25 21 -70 41 -70 13 0 18 -39 14 -117 -3 -55
-6 -62 -28 -67 -13 -4 -24 -13 -24 -20 0 -8 -3 -21 -6 -29 -3 -8 8 -27 25 -44
24 -24 30 -39 31 -79 4 -104 1 -134 -13 -128 -16 6 -32 -12 -40 -45 -6 -26 18
-71 38 -71 15 0 27 -97 16 -137 -8 -30 -51 -47 -100 -40 l-26 3 27 12 c19 8
26 16 22 27 -4 10 0 15 10 15 20 0 21 14 2 30 -8 6 -13 17 -10 25 3 8 -8 20
-28 29 -20 11 -34 13 -36 6 -2 -5 -10 -10 -18 -10 -8 0 -14 -6 -14 -13 0 -8
-9 -22 -20 -32 -24 -22 -26 -35 -5 -35 8 0 15 -9 15 -19 0 -12 9 -21 25 -25
37 -9 31 -23 -13 -30 -28 -4 -49 0 -78 14 -33 17 -40 18 -42 6 -2 -9 -10 -12
-19 -9 -9 4 -21 -1 -29 -11 -19 -26 -171 -36 -180 -12 -3 9 -14 16 -23 16 -9
0 -22 5 -28 11 -7 7 -17 8 -25 3 -7 -5 -20 -7 -29 -6 -9 2 -19 -4 -22 -13 -9
-23 -130 -20 -181 4 -30 14 -53 18 -98 13 l-59 -5 7 29 c4 16 11 34 15 40 14
18 -16 66 -50 80 -30 13 -31 15 -31 79 l0 67 41 16 c34 13 39 19 35 38 -4 13
-1 26 4 29 8 5 8 11 0 20 -6 7 -9 18 -8 25 2 6 -4 15 -12 19 -57 29 -55 25
-55 97 l0 69 33 10 c19 5 32 16 32 25 0 9 6 22 12 28 10 10 10 14 0 21 -7 4
-12 14 -10 21 2 7 -14 22 -34 33 l-38 21 0 67 c0 65 1 67 27 74 39 9 54 25 48
46 -3 9 -1 20 5 24 8 5 8 10 0 20 -6 7 -9 18 -8 25 3 11 -4 16 -49 39 -15 7
-18 21 -18 77 l0 69 33 10 c19 5 32 16 32 25 0 9 5 21 10 26 12 12 -15 74 -32
74 -31 0 -48 34 -48 94 l0 61 41 17 c31 13 40 22 35 34 -3 9 -2 22 4 29 8 9 8
15 0 20 -5 3 -10 15 -10 25 0 13 -12 25 -35 34 -34 15 -35 17 -35 70 l0 56 50
0 50 0 -6 -30z m-1124 -218 c0 -48 48 -55 88 -12 16 17 33 30 38 30 5 0 20
-13 34 -30 32 -39 67 -40 72 -3 2 22 9 28 30 30 21 1 32 -5 45 -28 22 -38 46
-37 83 4 28 30 31 31 44 15 7 -10 18 -18 24 -18 5 0 12 -7 16 -15 3 -9 18 -15
36 -15 25 0 30 4 30 24 0 13 6 26 14 29 20 8 57 -3 50 -15 -9 -15 16 -38 42
-38 13 0 24 4 24 9 0 5 13 19 29 30 l29 21 30 -30 c39 -39 70 -40 74 -2 2 21
9 28 30 30 21 3 30 -3 43 -27 17 -34 58 -43 69 -16 3 8 12 15 21 15 11 0 15
-11 15 -45 0 -41 -2 -45 -25 -45 -14 0 -25 5 -25 10 0 20 -41 10 -49 -12 -23
-62 -23 -65 9 -78 40 -17 58 -8 66 34 12 66 24 37 24 -60 0 -72 -3 -95 -12
-92 -7 3 -14 14 -16 26 -5 35 -37 46 -71 26 -21 -13 -27 -22 -21 -33 4 -9 13
-28 19 -43 13 -33 40 -36 66 -8 28 31 35 24 35 -30 0 -53 -11 -62 -49 -38 -27
17 -49 4 -60 -38 -6 -21 -9 -40 -7 -42 3 -2 22 -6 44 -9 40 -5 41 -5 47 31 12
64 25 39 25 -49 0 -86 -11 -109 -30 -60 -8 20 -16 25 -44 25 -18 0 -39 -7 -46
-15 -7 -8 -8 -15 -3 -15 5 0 13 -15 18 -32 11 -38 45 -49 71 -24 8 9 19 16 24
16 5 0 9 -65 9 -145 1 -151 -6 -174 -34 -109 -12 30 -18 34 -37 29 -36 -11
-49 -26 -43 -49 19 -67 47 -83 80 -46 28 31 35 24 35 -30 0 -43 -3 -50 -19
-50 -11 0 -23 5 -26 10 -12 20 -43 10 -53 -17 -21 -57 -21 -59 9 -72 40 -17
55 -9 63 33 17 88 25 20 25 -205 0 -181 -3 -239 -12 -236 -6 2 -14 14 -17 28
-4 17 -14 25 -34 27 -53 6 -64 -23 -34 -85 14 -28 49 -30 66 -3 24 39 30 19
31 -95 l0 -115 -48 0 c-27 0 -61 -6 -76 -14 -25 -13 -32 -13 -56 0 -37 19 -52
18 -74 -6 -10 -11 -29 -20 -42 -20 -16 0 -27 7 -30 20 -8 30 -68 27 -96 -4
l-21 -24 -23 24 c-28 31 -66 31 -97 -1 -32 -32 -54 -32 -66 0 -12 32 -61 34
-92 3 -17 -17 -24 -19 -37 -9 -45 32 -61 35 -91 17 -28 -16 -32 -16 -64 -1
-19 9 -50 16 -68 15 -18 -1 -38 -2 -45 -1 -8 1 -12 39 -12 131 -1 127 -1 130
19 120 11 -6 17 -17 14 -24 -6 -15 24 -36 48 -36 21 1 52 50 39 63 -6 6 -11
19 -11 28 0 23 -34 30 -60 12 -42 -30 -48 -14 -49 131 -1 115 1 136 14 136 8
0 15 -8 15 -18 0 -24 19 -42 44 -42 25 1 67 51 48 58 -7 2 -12 13 -12 24 0 19
-4 20 -55 14 l-55 -6 0 40 c0 39 1 40 28 34 15 -4 35 -11 44 -15 24 -13 26
-12 43 21 20 39 19 60 -3 60 -10 0 -23 5 -30 12 -15 15 -52 -16 -52 -44 0 -11
-5 -18 -12 -16 -15 5 -24 178 -10 178 14 0 33 -26 25 -33 -10 -10 18 -37 38
-37 10 0 29 11 43 25 20 20 22 26 10 36 -8 6 -14 20 -14 30 0 26 -37 35 -60
14 -31 -28 -50 -12 -50 40 0 44 7 54 25 36 6 -5 26 -12 45 -16 31 -5 36 -3 47
22 19 40 16 50 -19 67 -29 15 -33 15 -50 0 -10 -10 -18 -25 -18 -36 0 -10 -7
-18 -15 -18 -12 0 -15 16 -15 85 0 69 3 85 15 85 8 0 15 -8 15 -18 0 -43 50
-56 79 -20 15 18 16 27 7 51 -11 28 -13 29 -63 23 l-51 -6 -1 136 c-1 104 2
135 12 131 6 -2 14 -12 16 -23 2 -10 11 -24 20 -31 19 -15 51 -17 51 -4 0 5 7
16 15 24 11 12 12 21 3 45 -14 35 -45 48 -68 27 -9 -8 -24 -15 -33 -15 -14 0
-16 17 -16 131 -1 72 2 135 5 140 9 15 24 10 24 -9z"/>
<path d="M2378 2772 c-31 -30 -33 -44 -17 -90 15 -42 56 -56 101 -34 30 16 33
21 36 69 3 49 1 53 -27 67 -42 22 -62 19 -93 -12z"/>
<path d="M2683 2771 c-37 -31 -40 -50 -16 -91 23 -39 54 -52 93 -39 37 13 50
36 50 86 0 35 -4 41 -35 56 -47 22 -54 21 -92 -12z"/>
<path d="M2975 2770 c-26 -27 -28 -33 -19 -67 6 -25 19 -43 39 -55 29 -17 33
-17 65 0 32 16 35 21 38 69 3 49 1 53 -27 67 -43 23 -64 20 -96 -14z"/>
<path d="M2263 2643 c-34 -7 -47 -30 -47 -84 0 -52 15 -72 63 -85 18 -5 29 0
47 22 31 37 46 72 39 93 -15 44 -53 64 -102 54z"/>
<path d="M2555 2640 c-38 -15 -49 -41 -46 -107 2 -49 106 -70 126 -25 5 12 13
22 17 22 13 0 9 49 -7 79 -8 16 -25 31 -37 35 -27 7 -28 7 -53 -4z"/>
<path d="M2860 2641 c-32 -9 -65 -73 -51 -99 5 -9 12 -24 15 -33 2 -10 21 -22
42 -29 36 -12 37 -11 63 21 35 45 42 72 24 106 -8 15 -15 28 -16 29 -8 8 -56
11 -77 5z"/>
<path d="M2377 2462 c-31 -33 -34 -58 -8 -91 14 -18 28 -24 60 -24 51 0 70 21
71 80 0 37 -3 42 -31 52 -48 16 -63 14 -92 -17z"/>
<path d="M2683 2467 c-39 -26 -41 -52 -8 -91 48 -60 135 -30 135 45 0 32 -5
41 -30 54 -38 20 -58 18 -97 -8z"/>
<path d="M2977 2462 c-32 -33 -34 -58 -6 -91 14 -18 31 -25 54 -25 47 0 75 28
75 75 0 32 -5 41 -30 54 -42 22 -63 19 -93 -13z"/>
<path d="M2263 2353 c-13 -3 -29 -20 -41 -44 -18 -36 -19 -44 -7 -72 7 -18 23
-38 36 -44 33 -18 69 -16 69 2 0 8 4 15 9 15 5 0 16 15 25 34 15 32 15 37 -1
70 -9 20 -22 36 -29 36 -7 0 -18 2 -26 4 -7 2 -23 1 -35 -1z"/>
<path d="M2564 2352 c-34 -5 -55 -36 -57 -81 -2 -49 15 -69 67 -81 34 -7 38
-6 60 23 36 50 37 52 16 94 -19 41 -41 52 -86 45z"/>
<path d="M2860 2347 c-35 -17 -61 -74 -48 -107 14 -36 26 -48 59 -55 25 -6 35
-2 55 20 39 42 47 71 28 106 -8 16 -26 34 -40 39 -30 12 -24 12 -54 -3z"/>
<path d="M2378 2172 c-31 -31 -34 -51 -14 -91 22 -41 54 -52 96 -32 32 15 35
20 38 66 3 46 1 52 -27 68 -40 23 -61 21 -93 -11z"/>
<path d="M2683 2171 c-37 -31 -40 -50 -17 -90 25 -42 59 -53 103 -33 34 16 36
20 39 67 3 49 2 51 -33 68 -47 22 -54 21 -92 -12z"/>
<path d="M2977 2172 c-15 -15 -27 -36 -27 -46 0 -30 27 -72 55 -84 23 -11 32
-10 59 6 27 16 31 24 34 68 3 45 1 51 -27 67 -41 24 -63 21 -94 -11z"/>
<path d="M2266 2043 c-64 -16 -73 -122 -14 -156 36 -21 68 -22 68 -3 0 7 7 20
16 27 29 24 36 58 18 94 -13 28 -43 48 -64 44 -3 -1 -14 -4 -24 -6z"/>
<path d="M2555 2041 c-38 -16 -49 -43 -46 -108 1 -27 51 -56 89 -51 19 2 32
14 46 40 17 34 18 42 6 78 -7 22 -18 40 -24 40 -6 0 -20 2 -31 5 -11 2 -29 0
-40 -4z"/>
<path d="M2855 2035 c-62 -31 -63 -113 -3 -148 41 -23 49 -22 79 16 35 44 42
78 22 108 -9 13 -17 25 -17 26 -6 11 -58 10 -81 -2z"/>
<path d="M2377 1862 c-32 -33 -34 -58 -7 -92 15 -19 27 -24 59 -24 52 2 71 22
71 77 0 37 -4 46 -25 55 -41 19 -69 14 -98 -16z"/>
<path d="M2682 1862 c-35 -29 -41 -52 -17 -72 8 -7 15 -18 15 -25 0 -15 52
-27 77 -18 37 13 53 36 53 74 0 32 -5 41 -30 54 -41 21 -60 19 -98 -13z"/>
<path d="M2977 1862 c-32 -33 -34 -58 -6 -91 14 -18 31 -25 54 -25 47 0 75 28
75 75 0 32 -5 41 -30 54 -42 22 -63 19 -93 -13z"/>
<path d="M2253 1741 c-32 -20 -45 -54 -38 -101 2 -14 4 -28 4 -32 1 -4 19 -13
42 -19 39 -12 41 -12 65 17 40 48 46 70 27 109 -10 21 -22 34 -30 31 -7 -3
-15 -1 -18 4 -9 14 -16 13 -52 -9z"/>
<path d="M2564 1753 c-42 -8 -61 -48 -56 -119 2 -24 53 -51 87 -46 27 4 65 51
65 80 0 25 -29 82 -41 82 -4 0 -13 2 -21 4 -7 2 -23 1 -34 -1z"/>
<path d="M2861 1747 c-14 -6 -33 -27 -43 -45 -17 -31 -17 -34 0 -69 12 -27 26
-40 50 -47 30 -8 36 -6 61 20 15 16 30 40 34 53 7 27 -20 91 -39 91 -7 0 -18
2 -26 5 -7 3 -24 -1 -37 -8z"/>
<path d="M2378 1570 c-16 -16 -28 -38 -28 -50 0 -33 32 -80 55 -81 70 -4 95
17 95 80 0 41 -4 48 -31 64 -42 23 -59 21 -91 -13z"/>
<path d="M2683 1571 c-40 -33 -42 -64 -8 -105 19 -24 31 -30 60 -29 50 1 75
30 75 86 0 40 -3 45 -35 60 -47 22 -54 21 -92 -12z"/>
<path d="M2981 1571 c-30 -27 -33 -34 -27 -65 4 -20 11 -36 16 -36 6 0 10 -7
10 -15 0 -8 10 -16 23 -17 72 -5 97 17 97 83 0 44 -3 50 -30 64 -41 21 -52 19
-89 -14z"/>
<path d="M2266 1443 c-34 -9 -48 -32 -51 -83 -2 -47 0 -51 30 -70 18 -11 39
-20 46 -20 17 0 63 56 73 88 8 24 -20 82 -40 82 -7 0 -18 2 -26 4 -7 2 -22 1
-32 -1z"/>
<path d="M2555 1440 c-33 -13 -46 -36 -47 -81 0 -33 5 -46 23 -61 33 -25 91
-20 104 10 5 12 13 22 17 22 13 0 9 49 -7 79 -8 16 -25 31 -37 35 -27 7 -28 7
-53 -4z"/>
<path d="M2855 1435 c-73 -37 -58 -139 23 -161 42 -12 105 84 82 125 -20 34
-26 40 -50 45 -14 3 -38 -1 -55 -9z"/>
<path d="M2378 1263 c-33 -34 -35 -59 -7 -93 16 -19 30 -24 60 -24 48 2 68 24
69 75 0 42 -15 58 -62 65 -27 5 -38 1 -60 -23z"/>
<path d="M2682 1262 c-38 -32 -39 -47 -7 -86 48 -59 135 -30 135 44 0 33 -4
40 -34 54 -45 21 -55 20 -94 -12z"/>
<path d="M2977 1262 c-31 -32 -34 -58 -9 -88 27 -32 57 -38 97 -18 32 15 35
20 35 60 0 38 -4 45 -30 59 -42 22 -63 19 -93 -13z"/>
<path d="M2260 1147 c-35 -18 -53 -60 -45 -107 5 -31 12 -41 37 -49 43 -15 68
-14 68 4 0 8 4 15 9 15 5 0 16 15 25 34 15 32 15 37 0 69 -10 20 -22 33 -29
30 -7 -2 -16 0 -20 6 -8 14 -14 14 -45 -2z"/>
<path d="M2565 1152 c-31 -6 -52 -30 -58 -65 -6 -44 7 -73 41 -91 39 -20 61
-15 89 20 27 34 28 52 9 98 -14 34 -40 46 -81 38z"/>
<path d="M2857 1143 c-15 -8 -34 -27 -42 -43 -14 -27 -14 -33 2 -67 13 -27 27
-40 51 -47 29 -8 36 -6 61 18 35 34 44 72 25 109 -12 22 -56 52 -67 46 -1 -1
-14 -8 -30 -16z"/>
<path d="M2378 970 c-32 -33 -34 -44 -13 -94 11 -25 22 -36 38 -37 73 -4 97
16 97 81 0 43 -2 47 -35 63 -47 22 -55 21 -87 -13z"/>
<path d="M2683 971 c-18 -15 -33 -36 -33 -46 0 -26 39 -85 58 -87 70 -6 102
21 102 86 0 39 -3 44 -35 59 -47 22 -54 21 -92 -12z"/>
<path d="M2975 964 c-26 -34 -27 -39 -16 -75 16 -53 49 -67 100 -42 34 17 36
21 39 69 3 50 2 52 -32 68 -49 23 -60 20 -91 -20z"/>
<path d="M2263 843 c-13 -3 -29 -20 -41 -46 -16 -35 -17 -46 -7 -70 11 -26 53
-57 79 -57 13 0 70 69 73 88 3 21 -29 82 -43 82 -7 0 -18 2 -26 4 -7 2 -23 1
-35 -1z"/>
<path d="M2564 843 c-41 -8 -58 -42 -55 -110 1 -25 54 -59 86 -54 25 3 65 49
65 75 0 31 -23 86 -36 86 -7 0 -18 2 -26 4 -7 2 -23 1 -34 -1z"/>
<path d="M2861 837 c-34 -17 -64 -73 -51 -96 5 -10 7 -21 4 -24 -8 -8 56 -47
76 -47 17 0 73 66 77 89 3 23 -27 81 -42 81 -7 0 -19 2 -27 5 -7 3 -24 -1 -37
-8z"/>
<path d="M2377 662 c-32 -33 -34 -58 -6 -92 16 -19 30 -24 60 -24 54 2 69 17
69 74 0 45 -2 49 -31 59 -48 16 -63 14 -92 -17z"/>
<path d="M2683 661 c-39 -33 -40 -46 -8 -85 48 -60 135 -30 135 46 0 35 -4 40
-35 54 -46 19 -55 18 -92 -15z"/>
<path d="M2977 662 c-31 -32 -34 -58 -9 -88 26 -31 56 -37 96 -20 34 14 36 18
36 60 0 40 -3 47 -30 61 -42 22 -63 19 -93 -13z"/>
<path d="M1390 2511 c0 -6 -7 -11 -15 -11 -8 0 -15 -5 -15 -11 0 -6 -9 -23
-20 -37 -18 -23 -19 -27 -5 -34 8 -5 15 -17 15 -27 0 -10 12 -23 26 -30 32
-14 79 5 79 33 0 11 6 21 12 23 10 4 10 9 1 26 -12 21 -14 27 -17 46 0 5 -9
11 -18 15 -10 3 -24 9 -30 12 -7 3 -13 1 -13 -5z"/>
<path d="M1990 2511 c0 -6 -9 -11 -21 -11 -14 0 -19 -5 -16 -14 3 -8 -3 -22
-14 -32 -17 -15 -18 -19 -4 -34 8 -9 15 -24 15 -34 0 -24 43 -37 80 -24 24 8
30 15 27 29 -3 11 1 23 9 27 11 6 11 13 -3 44 -9 20 -24 39 -32 42 -9 3 -22 9
-28 12 -7 3 -13 1 -13 -5z"/>
<path d="M1678 2503 c-10 -2 -18 -12 -18 -20 0 -9 -8 -25 -17 -35 -13 -15 -14
-21 -4 -27 7 -4 14 -17 15 -27 1 -10 15 -25 29 -32 34 -17 82 3 82 33 0 11 3
25 8 32 4 6 2 15 -4 18 -5 4 -8 13 -5 20 9 25 -46 49 -86 38z"/>
<path d="M1244 2348 c-3 -5 -14 -6 -24 -3 -13 4 -21 -2 -29 -26 -13 -39 4 -89
31 -89 9 0 18 -5 20 -12 6 -18 78 18 80 40 2 31 -3 67 -13 78 -13 15 -58 24
-65 12z"/>
<path d="M1535 2350 c-4 -6 -14 -9 -23 -8 -10 2 -22 -9 -30 -26 -12 -23 -12
-32 -1 -52 16 -31 69 -58 83 -44 5 5 18 10 27 10 19 0 31 44 22 78 -3 12 -19
28 -36 37 -36 18 -34 18 -42 5z"/>
<path d="M1840 2350 c0 -6 -8 -10 -17 -8 -11 2 -22 -8 -31 -25 -11 -23 -11
-33 0 -57 7 -17 20 -30 30 -30 9 0 18 -6 21 -12 3 -10 9 -10 26 0 11 6 28 12
36 12 23 0 24 85 2 106 -17 17 -67 27 -67 14z"/>
<path d="M1390 2200 c0 -5 -7 -10 -15 -10 -8 0 -15 -6 -15 -13 0 -8 -9 -22
-20 -32 -24 -22 -26 -35 -5 -35 8 0 15 -8 15 -19 0 -12 9 -20 26 -24 36 -6 79
6 79 24 0 8 6 19 14 25 10 8 11 13 3 18 -7 4 -12 16 -12 26 0 11 -13 25 -32
34 -37 19 -38 19 -38 6z"/>
<path d="M1683 2197 c-13 -5 -23 -19 -23 -29 0 -10 -7 -21 -15 -24 -17 -7 -21
-34 -5 -34 6 0 10 -7 10 -15 0 -20 44 -37 75 -29 30 7 62 64 43 75 -7 4 -9 11
-5 15 10 10 -23 45 -35 37 -6 -3 -13 -1 -17 4 -4 7 -14 7 -28 0z"/>
<path d="M1973 2196 c-13 -7 -20 -16 -16 -19 3 -4 -4 -18 -16 -31 -19 -20 -20
-24 -6 -36 8 -7 15 -18 15 -25 0 -16 44 -25 79 -16 14 4 26 14 26 22 0 8 6 19
14 25 10 8 11 13 3 18 -7 4 -12 16 -12 26 0 16 -48 54 -62 49 -2 -1 -13 -7
-25 -13z"/>
<path d="M1244 2057 c-3 -9 -13 -13 -25 -10 -12 4 -21 -1 -25 -13 -3 -11 -9
-26 -14 -34 -8 -16 19 -60 38 -60 5 0 15 -6 21 -14 17 -20 78 11 84 43 5 27
-10 80 -24 82 -19 3 -24 5 -37 12 -7 5 -14 3 -18 -6z"/>
<path d="M1535 2058 c-4 -9 -14 -14 -25 -11 -13 4 -21 -4 -29 -30 -10 -30 -9
-39 6 -56 9 -12 23 -21 31 -21 7 0 15 -6 18 -14 9 -23 72 12 79 45 8 35 -10
79 -33 79 -10 0 -23 5 -30 12 -9 9 -13 8 -17 -4z"/>
<path d="M1840 2057 c0 -8 -10 -13 -22 -13 -15 1 -23 -7 -30 -29 -10 -36 7
-75 34 -75 10 0 18 -7 18 -15 0 -8 6 -15 14 -15 8 0 16 7 20 15 3 8 14 15 25
15 33 0 36 96 2 107 -9 2 -24 9 -33 14 -24 12 -28 11 -28 -4z"/>
<path d="M1390 1911 c0 -6 -7 -11 -15 -11 -8 0 -15 -5 -15 -12 0 -6 -10 -22
-22 -36 -21 -22 -22 -24 -5 -33 9 -6 17 -19 17 -30 0 -27 41 -41 80 -28 22 8
30 17 30 34 0 13 4 25 10 27 14 4 -20 75 -39 82 -9 3 -22 9 -28 12 -7 3 -13 1
-13 -5z"/>
<path d="M1990 1912 c0 -5 -10 -12 -22 -15 -12 -4 -19 -9 -15 -13 4 -4 -3 -18
-15 -31 -21 -23 -22 -25 -5 -34 9 -6 17 -20 17 -33 0 -18 7 -25 26 -29 45 -8
79 6 82 36 2 15 8 27 13 27 5 0 4 10 -3 23 -12 21 -14 27 -17 46 0 5 -9 11
-18 15 -10 3 -24 9 -30 12 -7 3 -13 1 -13 -4z"/>
<path d="M1673 1903 c-7 -2 -13 -12 -13 -21 0 -8 -8 -24 -17 -35 -17 -18 -17
-19 1 -32 10 -8 16 -18 13 -22 -11 -18 12 -35 47 -35 42 0 70 18 61 40 -3 8
-1 20 5 27 8 9 8 15 0 20 -5 3 -10 15 -10 25 0 10 -3 21 -7 23 -15 9 -68 16
-80 10z"/>
<path d="M1244 1749 c-3 -5 -14 -9 -25 -9 -28 0 -43 -45 -27 -81 7 -16 20 -29
29 -29 9 0 20 -7 23 -16 6 -16 8 -16 24 0 10 9 26 16 35 16 10 0 18 9 19 23 2
37 -3 71 -13 83 -12 15 -58 24 -65 13z"/>
<path d="M1535 1750 c-3 -5 -15 -10 -26 -10 -27 0 -44 -47 -28 -77 16 -30 69
-57 83 -43 5 5 18 10 27 10 20 0 32 39 23 75 -3 14 -19 31 -37 40 -36 18 -34
18 -42 5z"/>
<path d="M1840 1750 c0 -5 -9 -10 -20 -10 -29 0 -45 -46 -28 -78 7 -14 19 -27
28 -30 8 -3 18 -10 22 -15 9 -15 75 19 81 42 6 25 -2 68 -17 79 -18 15 -66 23
-66 12z"/>
<path d="M1390 1601 c0 -6 -6 -11 -14 -11 -7 0 -16 -8 -20 -17 -3 -10 -11 -26
-18 -37 -10 -15 -10 -20 0 -23 6 -3 12 -13 12 -23 0 -11 10 -20 30 -24 41 -8
76 8 84 37 8 32 -10 83 -32 91 -9 3 -23 9 -29 12 -7 3 -13 1 -13 -5z"/>
<path d="M1682 1597 c-12 -6 -22 -18 -22 -29 0 -10 -4 -18 -9 -18 -17 0 -21
-32 -6 -46 8 -9 15 -19 15 -24 0 -12 40 -20 71 -13 19 4 29 12 29 24 0 10 4
20 9 24 16 9 -13 65 -40 79 -18 9 -31 10 -47 3z"/>
<path d="M1990 1601 c0 -6 -9 -11 -21 -11 -12 0 -17 -4 -14 -11 4 -6 -3 -21
-14 -33 -19 -20 -20 -24 -6 -36 8 -7 15 -18 15 -25 0 -28 97 -25 108 4 3 9 10
19 16 23 6 4 3 15 -9 28 -11 12 -19 24 -17 26 6 11 0 22 -15 28 -10 3 -24 9
-30 12 -7 3 -13 1 -13 -5z"/>
<path d="M1243 1457 c-5 -7 -17 -12 -27 -12 -13 0 -22 -10 -28 -30 -10 -36 7
-75 34 -75 10 0 18 -7 18 -16 0 -9 3 -14 8 -12 4 3 21 11 39 18 55 24 51 95
-6 123 -23 12 -33 12 -38 4z"/>
<path d="M1844 1458 c-5 -7 -18 -13 -28 -13 -26 0 -41 -51 -24 -82 6 -13 17
-23 24 -23 7 0 17 -7 21 -15 13 -22 80 12 86 44 7 34 -12 81 -32 81 -9 0 -22
5 -28 11 -8 8 -13 7 -19 -3z"/>
<path d="M1535 1450 c-4 -6 -11 -8 -16 -4 -14 8 -36 -13 -43 -41 -7 -26 18
-65 41 -65 6 0 16 -8 21 -17 9 -16 11 -16 27 0 9 9 22 17 30 17 7 0 15 10 18
21 6 24 -2 77 -12 83 -20 11 -61 15 -66 6z"/>
<path d="M1390 1310 c0 -5 -7 -10 -15 -10 -8 0 -15 -5 -15 -12 0 -6 -10 -22
-22 -36 -21 -22 -22 -24 -5 -33 9 -6 17 -19 17 -30 0 -25 39 -40 77 -30 21 5
29 14 31 34 2 15 7 27 11 27 5 0 3 17 -4 38 -7 20 -18 37 -24 37 -5 0 -16 6
-22 13 -16 15 -29 16 -29 2z"/>
<path d="M1995 1310 c-3 -6 -15 -10 -26 -10 -12 0 -19 -5 -16 -12 2 -7 -3 -21
-11 -31 -13 -15 -14 -22 -4 -37 7 -11 12 -28 12 -39 0 -21 34 -31 75 -23 17 3
27 13 32 31 3 14 11 29 16 33 7 4 6 12 -3 23 -8 9 -15 24 -16 32 -2 8 -4 16
-6 16 -2 1 -13 8 -25 14 -14 8 -24 9 -28 3z"/>
<path d="M1673 1303 c-7 -2 -13 -12 -13 -21 0 -8 -7 -23 -16 -33 -15 -17 -15
-19 0 -34 9 -9 16 -25 16 -35 0 -11 10 -20 28 -23 36 -7 77 13 77 38 0 11 3
25 8 32 4 6 2 15 -4 18 -5 4 -8 13 -5 20 3 8 -1 18 -7 23 -15 12 -68 22 -84
15z"/>
<path d="M1244 1148 c-4 -5 -14 -8 -25 -5 -13 4 -21 -3 -28 -26 -13 -37 5 -87
31 -87 9 0 18 -5 20 -12 6 -18 78 18 80 40 2 31 -3 67 -13 78 -13 16 -58 24
-65 12z"/>
<path d="M1537 1147 c-2 -6 -14 -12 -27 -12 -32 0 -45 -47 -23 -81 8 -13 21
-24 29 -24 7 0 17 -7 22 -16 8 -14 10 -14 21 0 8 9 21 16 31 16 21 0 34 49 22
81 -10 25 -69 54 -75 36z"/>
<path d="M1840 1152 c0 -6 -10 -12 -22 -14 -26 -4 -51 -69 -30 -76 7 -2 12
-10 12 -18 0 -8 9 -14 19 -14 10 0 22 -7 25 -16 6 -16 8 -16 24 0 10 9 24 16
31 16 6 0 16 11 21 25 12 31 -11 95 -34 95 -8 0 -21 3 -30 6 -9 3 -16 1 -16
-4z"/>
<path d="M1390 1001 c0 -6 -9 -11 -21 -11 -12 0 -17 -4 -14 -11 4 -6 -3 -22
-16 -35 -22 -24 -23 -26 -6 -35 9 -6 17 -16 17 -23 0 -8 14 -16 30 -20 34 -6
84 9 75 23 -3 6 1 14 10 18 13 8 13 13 -2 45 -9 20 -24 39 -32 42 -9 3 -22 9
-28 12 -7 3 -13 1 -13 -5z"/>
<path d="M1680 992 c-8 -4 -16 -14 -18 -22 -2 -8 -10 -23 -19 -32 -14 -15 -14
-19 0 -32 8 -9 17 -21 19 -28 6 -17 88 -15 98 2 10 16 4 90 -7 101 -13 11 -57
18 -73 11z"/>
<path d="M256 2295 c-3 -8 -12 -15 -19 -15 -30 0 -39 -26 -22 -59 8 -17 17
-31 19 -31 9 0 66 23 66 27 0 2 -5 24 -11 49 -12 45 -23 55 -33 29z"/>
<path d="M560 2296 c-6 -8 -21 -16 -33 -18 -18 -2 -22 -9 -20 -36 0 -18 7 -39
13 -48 11 -13 16 -13 36 1 13 9 24 13 24 9 0 -4 7 -1 15 6 15 12 12 53 -6 76
-5 6 -6 14 -2 17 3 4 2 7 -4 7 -6 0 -16 -6 -23 -14z"/>
<path d="M856 2295 c-3 -8 -12 -15 -19 -15 -30 0 -39 -26 -22 -60 13 -25 20
-30 38 -24 43 12 50 27 36 73 -13 43 -23 51 -33 26z"/>
<path d="M78 2283 c-18 -21 -31 -70 -20 -76 4 -3 23 -8 42 -12 31 -5 36 -3 47
22 19 40 16 50 -19 67 -38 19 -32 19 -50 -1z"/>
<path d="M367 2259 c-10 -23 -17 -42 -15 -43 65 -36 81 -32 95 22 10 38 9 39
-22 51 -42 15 -38 17 -58 -30z"/>
<path d="M679 2284 c-7 -9 -14 -21 -15 -28 -1 -6 -5 -18 -8 -26 -5 -11 3 -19
27 -28 48 -17 52 -16 65 21 16 45 16 43 -20 61 -38 19 -33 19 -49 0z"/>
<path d="M221 2116 c-25 -39 -26 -46 -7 -46 7 0 16 -9 19 -20 7 -29 57 -28 57
1 0 11 4 28 10 38 7 14 3 22 -20 39 -16 12 -31 22 -34 22 -2 0 -14 -15 -25
-34z"/>
<path d="M373 2134 c-24 -12 -30 -20 -24 -32 5 -10 14 -29 22 -44 15 -33 35
-35 65 -7 19 18 21 25 12 43 -6 11 -14 27 -18 35 -10 21 -21 22 -57 5z"/>
<path d="M513 2123 c-15 -32 -17 -67 -3 -58 5 3 15 -3 22 -15 12 -19 52 -28
62 -12 2 4 7 23 11 43 6 34 5 37 -28 52 -46 22 -50 22 -64 -10z"/>
<path d="M675 2132 c-16 -9 -32 -18 -34 -19 -2 -2 4 -12 14 -23 10 -11 14 -20
10 -20 -4 0 0 -9 10 -20 18 -20 55 -28 55 -11 0 5 7 16 15 25 13 12 13 19 3
43 -12 26 -26 43 -38 43 -3 0 -18 -8 -35 -18z"/>
<path d="M822 2120 c-25 -34 -28 -50 -8 -50 7 0 16 -9 19 -20 3 -13 14 -20 30
-20 21 0 25 6 31 41 5 34 3 43 -16 59 -30 25 -31 25 -56 -10z"/>
<path d="M256 1985 c-3 -8 -14 -15 -25 -15 -27 0 -34 -26 -16 -60 15 -28 16
-29 48 -15 35 15 35 14 24 68 -8 39 -21 48 -31 22z"/>
<path d="M555 1989 c-4 -5 -18 -14 -31 -19 -28 -11 -30 -29 -8 -71 14 -28 17
-29 32 -16 9 8 26 17 37 19 16 3 19 10 17 33 -2 16 -8 35 -13 41 -5 6 -6 14
-2 17 3 4 -1 7 -10 7 -9 0 -19 -5 -22 -11z"/>
<path d="M854 1985 c-4 -8 -14 -15 -24 -15 -26 0 -32 -27 -15 -60 14 -27 17
-29 43 -18 42 18 44 23 31 67 -13 42 -25 52 -35 26z"/>
<path d="M78 1973 c-8 -10 -18 -29 -21 -43 -5 -22 -2 -27 28 -36 38 -12 47 -9
64 23 17 32 14 53 -8 53 -11 0 -23 5 -26 10 -9 15 -20 12 -37 -7z"/>
<path d="M366 1949 c-9 -23 -15 -44 -12 -46 2 -3 22 -7 44 -10 40 -5 41 -5 48
31 5 30 3 40 -12 51 -33 25 -51 18 -68 -26z"/>
<path d="M678 1973 c-8 -10 -18 -29 -21 -43 -5 -22 -2 -27 28 -36 38 -12 44
-9 63 23 18 33 15 53 -7 53 -11 0 -23 5 -26 10 -9 15 -20 12 -37 -7z"/>
<path d="M215 1816 c-15 -22 -14 -26 8 -50 36 -39 63 -35 71 12 4 28 2 40 -11
50 -26 19 -51 14 -68 -12z"/>
<path d="M361 1831 c-22 -14 7 -85 37 -89 35 -5 56 23 45 61 -7 26 -14 33 -38
35 -17 1 -36 -2 -44 -7z"/>
<path d="M506 1819 c-16 -23 -11 -49 9 -49 7 0 15 -7 19 -15 3 -9 18 -15 34
-15 26 0 30 4 36 38 4 28 2 40 -11 50 -26 19 -70 15 -87 -9z"/>
<path d="M654 1825 c-18 -14 -18 -16 -1 -26 9 -5 15 -15 11 -20 -9 -14 15 -39
38 -39 11 0 28 10 37 22 15 17 16 27 7 50 -8 22 -17 28 -41 28 -17 0 -40 -7
-51 -15z"/>
<path d="M817 1822 c-22 -24 -21 -26 7 -56 37 -40 62 -34 70 16 5 29 3 44 -6
50 -22 13 -54 9 -71 -10z"/>
<path d="M256 1695 c-3 -8 -12 -15 -19 -15 -30 0 -39 -26 -22 -59 8 -17 17
-31 19 -31 9 0 66 23 66 27 0 2 -5 24 -11 49 -12 45 -23 55 -33 29z"/>
<path d="M561 1696 c-7 -8 -22 -16 -34 -18 -18 -2 -22 -9 -20 -37 0 -18 8 -40
16 -48 12 -12 19 -11 51 8 39 23 40 32 12 87 -11 21 -14 22 -25 8z"/>
<path d="M856 1695 c-3 -8 -12 -15 -19 -15 -30 0 -39 -26 -22 -59 8 -17 17
-31 19 -31 9 0 66 23 66 27 0 2 -5 24 -11 49 -12 45 -23 55 -33 29z"/>
<path d="M367 1659 c-21 -48 -16 -57 35 -65 36 -6 36 -6 43 36 6 34 4 44 -12
55 -30 24 -47 17 -66 -26z"/>
<path d="M675 1680 c-10 -11 -15 -23 -12 -27 4 -3 2 -12 -5 -20 -15 -18 -2
-30 42 -38 31 -5 36 -3 48 22 18 40 15 50 -20 67 -38 19 -31 20 -53 -4z"/>
<path d="M969 1672 c-20 -51 -16 -65 19 -75 40 -12 51 -4 58 45 5 31 3 36 -17
43 -46 14 -50 13 -60 -13z"/>
<path d="M244 1542 c-13 -9 -44 -54 -44 -64 0 -5 6 -8 14 -8 7 0 16 -9 19 -20
6 -23 57 -29 57 -6 0 7 2 26 5 42 4 23 0 33 -18 46 -13 9 -28 13 -33 10z"/>
<path d="M371 1533 c-22 -18 -22 -19 -6 -61 19 -47 37 -53 71 -21 19 18 21 25
12 43 -6 11 -14 28 -18 36 -10 22 -34 23 -59 3z"/>
<path d="M516 1525 c-17 -26 -22 -70 -7 -60 6 3 15 -4 21 -15 8 -15 19 -20 38
-18 22 2 28 10 34 42 7 34 5 41 -14 55 -35 24 -54 23 -72 -4z"/>
<path d="M680 1535 c-7 -8 -19 -15 -26 -15 -18 0 -18 -14 1 -30 9 -7 13 -15
11 -18 -3 -2 -1 -13 5 -23 14 -26 51 -23 71 5 16 22 16 27 3 52 -22 43 -45 53
-65 29z"/>
<path d="M816 1515 c-20 -30 -20 -45 -2 -45 7 0 16 -9 19 -21 4 -15 12 -20 28
-17 34 4 50 73 23 93 -28 21 -50 18 -68 -10z"/>
<path d="M256 1385 c-3 -8 -12 -15 -19 -15 -29 0 -39 -26 -23 -59 16 -29 17
-30 49 -16 35 15 35 14 24 68 -8 39 -21 48 -31 22z"/>
<path d="M393 1392 c-12 -8 -47 -82 -41 -86 19 -14 71 -27 78 -20 15 16 29 84
17 84 -6 0 -18 7 -26 14 -9 8 -22 12 -28 8z"/>
<path d="M555 1389 c-4 -5 -18 -14 -31 -19 -28 -11 -30 -29 -8 -71 14 -28 17
-29 32 -16 9 8 26 17 37 19 22 4 24 36 3 76 -12 24 -23 28 -33 11z"/>
<path d="M850 1386 c0 -8 -11 -17 -25 -20 -29 -7 -31 -16 -10 -56 14 -27 17
-29 43 -18 42 18 44 23 31 67 -11 38 -39 58 -39 27z"/>
<path d="M675 1370 c-10 -11 -14 -20 -10 -20 5 0 4 -5 -3 -12 -19 -19 -14 -35
11 -41 12 -2 30 -8 39 -12 12 -5 21 1 32 24 21 39 20 57 -1 64 -10 2 -25 8
-34 11 -9 4 -23 -1 -34 -14z"/>
<path d="M215 1216 c-15 -22 -14 -26 8 -50 36 -39 63 -35 71 12 4 28 2 40 -11
50 -26 19 -51 14 -68 -12z"/>
<path d="M361 1231 c-12 -8 -12 -15 0 -48 17 -44 45 -53 76 -26 19 17 20 21 7
51 -11 25 -20 32 -42 32 -15 0 -33 -4 -41 -9z"/>
<path d="M512 1220 c-16 -27 -15 -50 3 -50 7 0 18 -7 23 -16 5 -9 18 -14 32
-12 33 4 50 66 24 85 -27 19 -67 16 -82 -7z"/>
<path d="M656 1227 c-16 -12 -16 -14 -2 -26 9 -7 13 -17 10 -23 -9 -14 16 -38
40 -38 11 0 29 11 38 24 25 35 5 76 -38 76 -16 0 -38 -6 -48 -13z"/>
<path d="M817 1222 c-22 -24 -21 -26 7 -56 37 -40 62 -34 70 16 5 29 3 44 -6
50 -22 13 -54 9 -71 -10z"/>
<path d="M956 1229 c-10 -6 -14 -14 -10 -18 5 -3 14 -19 19 -36 12 -35 47 -45
71 -20 13 13 15 23 7 48 -7 26 -14 32 -38 34 -17 2 -38 -2 -49 -8z"/>
<path d="M260 1095 c0 -8 -9 -15 -20 -15 -30 0 -40 -29 -23 -66 15 -30 16 -31
44 -17 38 19 40 23 27 71 -10 41 -28 58 -28 27z"/>
<path d="M556 1095 c-3 -8 -15 -15 -26 -15 -11 0 -23 -7 -26 -15 -7 -17 14
-85 26 -85 10 0 80 40 80 46 0 2 -7 22 -16 44 -17 42 -28 50 -38 25z"/>
<path d="M856 1095 c-3 -8 -12 -15 -19 -15 -30 0 -39 -26 -22 -59 8 -17 17
-31 19 -31 9 0 66 23 66 27 0 2 -5 24 -11 49 -12 45 -23 55 -33 29z"/>
<path d="M78 1083 c-8 -10 -18 -30 -22 -45 -5 -23 -2 -27 26 -37 45 -16 52
-14 65 16 20 42 16 63 -10 63 -13 0 -28 5 -33 10 -7 7 -15 5 -26 -7z"/>
<path d="M387 1088 c-9 -7 -21 -28 -26 -46 -9 -30 -8 -34 15 -42 48 -19 60
-13 71 35 9 41 9 45 -8 45 -11 0 -19 5 -19 10 0 14 -13 13 -33 -2z"/>
<path d="M678 1083 c-9 -10 -13 -23 -11 -30 2 -6 -1 -14 -6 -18 -19 -11 -12
-23 20 -34 47 -16 54 -14 67 22 16 45 16 43 -20 61 -38 19 -32 19 -50 -1z"/>
<path d="M972 1073 c-22 -55 -19 -66 16 -76 40 -12 51 -4 59 46 4 30 3 37 -11
37 -9 0 -16 5 -16 10 0 22 -38 9 -48 -17z"/>
<path d="M221 920 l-22 -30 23 -30 c23 -31 68 -42 68 -16 0 7 3 26 6 42 5 24
1 32 -24 46 -29 17 -29 17 -51 -12z"/>
<path d="M370 933 c-15 -10 -19 -21 -15 -36 19 -69 51 -86 84 -46 16 20 16 25
2 55 -17 38 -41 48 -71 27z"/>
<path d="M513 923 c-7 -15 -13 -30 -13 -35 0 -17 53 -58 74 -58 19 0 24 7 30
38 5 32 2 40 -21 57 -39 28 -56 28 -70 -2z"/>
<path d="M680 932 c-46 -21 -46 -20 -32 -34 7 -7 12 -20 12 -30 0 -18 28 -38
52 -38 7 0 21 11 30 24 16 22 16 27 2 55 -20 41 -24 42 -64 23z"/>
<path d="M822 920 c-25 -34 -28 -50 -8 -50 7 0 16 -9 19 -20 6 -23 57 -29 57
-6 0 7 3 26 6 42 5 24 1 32 -24 46 -29 17 -29 17 -50 -12z"/>
<path d="M256 785 c-3 -8 -12 -15 -19 -15 -29 0 -39 -26 -23 -59 15 -28 18
-29 46 -19 39 13 41 17 28 66 -11 44 -22 53 -32 27z"/>
<path d="M538 778 c-42 -22 -45 -35 -22 -79 13 -26 18 -28 31 -18 8 7 22 14
30 15 9 2 19 6 24 11 9 9 -9 93 -20 92 -3 0 -23 -9 -43 -21z"/>
<path d="M856 785 c-3 -8 -12 -15 -19 -15 -32 0 -39 -27 -18 -67 11 -21 20
-32 21 -25 0 6 6 12 13 12 7 0 21 6 31 13 16 12 17 18 5 55 -13 44 -23 52 -33
27z"/>
<path d="M78 773 c-8 -10 -18 -30 -22 -44 -5 -23 -2 -28 18 -33 13 -3 31 -9
39 -12 11 -4 21 4 31 25 22 41 21 47 -16 65 -38 19 -32 19 -50 -1z"/>
<path d="M366 749 c-18 -44 -16 -51 12 -57 49 -11 56 -7 67 33 11 37 10 40
-13 52 -38 20 -49 16 -66 -28z"/>
<path d="M679 774 c-7 -9 -14 -21 -15 -28 -1 -6 -5 -19 -9 -28 -5 -14 -2 -18
13 -18 12 0 24 -4 27 -10 13 -22 41 -9 53 23 16 45 16 43 -20 61 -38 19 -33
19 -49 0z"/>
<path d="M966 763 c-4 -16 -9 -35 -11 -43 -6 -18 47 -45 70 -36 8 3 17 21 21
41 5 29 3 39 -12 50 -32 24 -61 19 -68 -12z"/>
<path d="M10266 2998 c-4 -13 -15 -63 -26 -113 -11 -49 -31 -142 -45 -205 -14
-63 -32 -149 -41 -190 -8 -41 -17 -83 -20 -92 -4 -14 1 -18 20 -18 35 0 39
-12 22 -75 -11 -42 -11 -57 -3 -60 7 -2 86 -11 177 -20 91 -9 172 -18 180 -20
8 -3 80 -12 160 -20 80 -8 172 -19 206 -23 71 -9 84 -7 84 17 0 9 11 66 25
126 44 192 76 338 86 400 6 33 17 91 25 129 8 38 14 72 14 76 0 4 -19 11 -42
14 -54 9 -419 52 -603 71 -77 8 -156 17 -176 21 -32 5 -37 2 -43 -18z m294
-58 c91 -11 208 -24 260 -30 52 -6 130 -15 173 -22 l79 -12 -6 -40 c-18 -110
-107 -491 -117 -497 -6 -3 -19 -5 -28 -3 -9 2 -97 13 -196 24 -411 45 -518 59
-527 68 -8 8 24 175 78 398 7 33 14 65 14 71 0 7 4 23 10 37 12 33 33 33 260
6z"/>
<path d="M10540 2906 c0 -3 5 -14 11 -24 9 -15 3 -54 -30 -189 -22 -93 -41
-177 -41 -185 0 -8 -12 -27 -27 -42 -14 -14 -24 -28 -21 -31 8 -8 208 -28 215
-22 3 4 0 13 -6 21 -15 17 -15 17 41 245 31 124 46 169 62 182 l21 17 -28 11
c-33 13 -197 27 -197 17z"/>
<path d="M7780 2929 c-91 -16 -230 -40 -310 -54 -80 -14 -179 -31 -220 -37
-41 -6 -80 -15 -87 -20 -8 -7 -5 -27 13 -81 14 -40 22 -81 20 -92 -5 -18 157
-536 176 -561 5 -7 23 -8 55 -2 27 4 86 15 133 23 47 8 150 26 230 40 129 23
317 54 330 55 3 0 11 4 19 9 11 7 11 16 -4 54 -21 55 -15 77 20 77 18 0 25 5
25 20 0 10 -41 144 -91 297 -50 153 -92 284 -94 291 -6 16 -23 15 -215 -19z
m257 -269 c45 -135 82 -253 83 -262 0 -19 8 -17 -235 -57 -99 -17 -225 -39
-280 -50 -55 -10 -128 -22 -161 -26 l-62 -7 -82 251 c-45 138 -79 258 -76 267
9 25 27 12 43 -31 8 -22 20 -52 25 -67 10 -28 33 -38 40 -17 5 15 195 46 207
34 4 -6 30 -77 56 -159 35 -113 45 -157 40 -184 l-6 -34 38 5 c90 12 173 31
173 39 0 6 -9 17 -20 26 -21 18 -125 326 -115 342 8 13 170 33 204 25 38 -8
39 4 11 85 -14 41 -16 57 -7 62 32 21 43 -1 124 -242z m-167 214 c-13 -15 -30
-19 -155 -39 -49 -7 -160 -25 -244 -39 -85 -14 -159 -23 -163 -20 -21 13 0 21
95 37 56 10 120 22 142 27 22 5 98 18 169 29 70 11 131 22 133 25 3 2 11 2 19
-1 11 -4 12 -9 4 -19z"/>
<path d="M11371 2803 c-116 -236 -271 -574 -267 -582 4 -5 20 -12 36 -16 41
-9 44 -18 20 -64 -11 -22 -20 -46 -20 -53 0 -9 97 -37 288 -85 158 -39 341
-85 407 -102 66 -17 125 -31 131 -31 6 0 23 27 38 60 15 33 66 140 113 238
149 310 146 303 128 316 -15 10 -13 19 19 86 19 41 32 78 28 82 -9 8 -845 218
-870 218 -12 0 -28 -21 -51 -67z m254 -29 c99 -25 272 -68 385 -96 113 -28
209 -54 214 -59 5 -4 -7 -40 -27 -81 -68 -140 -160 -333 -193 -404 -18 -40
-37 -74 -42 -78 -14 -8 -785 188 -789 201 -4 12 8 40 142 318 43 88 86 179 96
203 10 23 22 42 26 42 4 0 89 -21 188 -46z"/>
<path d="M11442 2728 c1 -48 -173 -393 -202 -401 -41 -11 -14 -31 71 -54 105
-28 100 -28 97 5 -2 27 93 236 113 248 14 8 38 -14 54 -50 8 -17 46 -80 85
-141 71 -113 79 -132 58 -153 -13 -13 -14 -13 94 -42 102 -27 109 -26 107 8
-3 39 176 392 202 399 41 11 17 31 -63 52 -104 27 -112 27 -105 0 7 -25 -101
-249 -119 -249 -6 0 -53 68 -104 151 -82 134 -92 154 -81 171 7 11 9 23 4 27
-7 6 -71 25 -195 58 -14 3 -17 -2 -16 -29z"/>
<path d="M3350 2742 c0 -20 36 -59 45 -50 7 7 -27 68 -37 68 -5 0 -8 -8 -8
-18z"/>
<path d="M6436 2574 c-203 -68 -373 -127 -377 -131 -5 -5 10 -37 31 -71 40
-63 49 -92 30 -92 -38 0 -14 -46 175 -340 12 -19 40 -63 61 -98 72 -117 18
-119 429 18 198 66 361 120 363 120 2 0 -11 25 -28 55 l-31 55 26 10 c14 5 32
10 39 10 45 0 31 29 -133 292 -181 289 -188 299 -205 297 -6 -1 -177 -57 -380
-125z m390 49 c115 -180 244 -391 244 -400 0 -7 -10 -13 -22 -13 -31 -1 -336
112 -342 126 -7 17 61 215 84 246 24 33 20 48 -13 41 -18 -4 -19 -3 -7 6 22
16 44 13 56 -6z m-86 -12 c0 -5 -16 -12 -36 -15 -59 -12 -144 -48 -144 -62 0
-8 6 -14 14 -14 25 0 28 -18 11 -75 -9 -33 -21 -55 -30 -55 -7 0 -46 12 -85
26 -58 22 -70 30 -65 44 3 10 2 21 -3 24 -10 6 -235 -65 -240 -76 -8 -16 3
-24 52 -34 70 -15 278 -92 294 -108 12 -11 10 -24 -8 -77 -88 -252 -85 -251
-174 -107 -21 35 -64 104 -96 153 -87 138 -106 175 -93 183 6 4 105 38 220 76
114 38 215 71 223 74 160 56 160 56 160 43z m15 -432 c63 -23 85 -35 81 -46
-11 -28 28 -25 138 11 127 41 139 43 134 19 -2 -12 -58 -35 -208 -85 -113 -37
-252 -84 -310 -104 -128 -45 -170 -52 -170 -31 0 10 36 27 115 53 70 23 115
43 115 51 0 7 -6 13 -14 13 -8 0 -17 4 -20 8 -7 12 33 142 44 142 5 0 48 -14
95 -31z"/>
<path d="M3520 2605 c0 -15 29 -35 51 -35 7 0 2 11 -11 25 -27 28 -40 32 -40
10z"/>
<path d="M3372 2544 c-30 -21 -28 -48 5 -74 46 -36 123 -14 123 35 0 49 -79
74 -128 39z"/>
<path d="M3687 2533 c-4 -3 -7 -17 -7 -29 0 -44 74 -70 115 -40 17 12 16 13
-10 20 -16 4 -39 18 -52 32 -23 25 -35 29 -46 17z"/>
<path d="M3564 2443 c-12 -2 -30 -13 -39 -23 -15 -16 -15 -22 -3 -46 22 -45
88 -53 131 -16 46 40 -15 99 -89 85z"/>
<path d="M3873 2435 c-27 -11 -33 -20 -33 -43 0 -39 21 -55 76 -56 37 -1 50 4
65 23 23 29 24 34 2 59 -24 27 -71 35 -110 17z"/>
<path d="M12337 2162 c-147 -148 -267 -273 -267 -279 0 -6 25 -23 55 -39 30
-16 55 -32 55 -35 0 -4 -16 -22 -36 -41 -28 -27 -32 -37 -22 -45 7 -6 67 -39
133 -73 66 -34 161 -84 210 -110 50 -26 146 -77 215 -113 l125 -66 24 20 c32
26 42 24 77 -12 24 -25 26 -32 14 -39 -59 -34 -59 -36 0 -92 30 -29 93 -87
140 -128 46 -41 132 -118 190 -170 58 -52 114 -103 124 -113 11 -9 24 -17 29
-17 12 0 71 33 342 194 121 71 244 143 273 159 28 16 52 31 52 35 0 3 -16 22
-35 42 l-36 37 61 37 c33 20 60 39 60 42 0 2 -17 19 -37 37 -38 33 -222 198
-303 271 -74 67 -214 190 -232 204 -14 11 -29 5 -108 -42 -50 -31 -93 -56 -95
-56 -2 0 -61 -34 -130 -76 -70 -41 -130 -73 -133 -69 -3 3 47 59 112 124 l118
119 -31 18 c-17 10 -31 23 -31 28 0 6 24 35 53 64 l52 54 -24 16 c-14 10 -101
57 -195 106 -94 48 -251 130 -349 182 -98 52 -179 94 -180 94 -2 0 -123 -121
-270 -268z m386 154 c134 -70 362 -190 461 -241 44 -23 81 -46 83 -52 4 -12
-448 -473 -464 -473 -12 0 -87 38 -278 140 -38 20 -139 72 -223 116 -87 45
-151 84 -150 91 3 12 455 473 465 473 2 0 50 -24 106 -54z m904 -576 c32 -31
119 -109 193 -175 202 -179 214 -191 207 -207 -3 -8 -63 -48 -134 -88 -70 -40
-171 -98 -223 -130 -157 -94 -234 -139 -252 -145 -12 -5 -45 19 -115 82 -54
48 -106 95 -115 103 -232 206 -286 257 -284 265 1 6 59 44 129 85 157 93 261
155 335 199 142 85 155 90 178 78 13 -7 49 -37 81 -67z"/>
<path d="M12568 2257 c-4 -31 -302 -345 -332 -349 -46 -6 -15 -30 145 -112
218 -112 272 -129 371 -124 186 11 343 165 307 302 -18 68 -70 109 -259 206
-96 50 -187 93 -202 96 -23 5 -27 3 -30 -19z m195 -173 c137 -69 166 -107 132
-178 -39 -82 -135 -134 -222 -122 -45 6 -158 55 -206 88 l-27 19 107 115 c61
65 115 114 125 114 10 0 51 -16 91 -36z"/>
<path d="M13380 1669 c-73 -8 -159 -42 -208 -84 -44 -37 -82 -114 -82 -165 0
-139 210 -300 390 -300 70 0 181 33 233 69 74 51 101 93 105 166 5 80 -21 138
-91 201 -99 89 -215 126 -347 113z m200 -144 c82 -41 122 -129 83 -185 -43
-63 -109 -93 -203 -94 -90 -1 -159 28 -196 84 -98 144 133 287 316 195z"/>
<path d="M4160 2387 c0 -38 77 -67 119 -45 34 19 31 31 -9 39 -101 20 -110 20
-110 6z"/>
<path d="M3400 2323 c-26 -10 -50 -35 -50 -53 0 -46 99 -70 133 -32 44 49 -16
110 -83 85z"/>
<path d="M3715 2320 c-12 -4 -27 -15 -34 -24 -12 -15 -11 -21 6 -44 24 -33 82
-41 119 -17 31 20 31 48 -2 74 -28 22 -55 25 -89 11z"/>
<path d="M4028 2314 c-21 -11 -28 -22 -28 -43 0 -49 83 -70 138 -35 30 20 28
49 -7 73 -34 25 -65 26 -103 5z"/>
<path d="M4370 2323 c-24 -9 -50 -35 -50 -50 0 -28 39 -53 83 -53 51 1 77 18
77 53 0 40 -62 68 -110 50z"/>
<path d="M5705 2231 c-84 -49 -238 -136 -395 -224 -111 -62 -160 -92 -160 -97
0 -4 25 -30 55 -59 58 -55 60 -72 14 -86 -10 -4 -19 -11 -19 -16 0 -5 42 -50
92 -99 51 -49 90 -91 87 -94 -3 -4 -41 14 -83 40 -64 39 -87 60 -134 124 -1 2
-11 -1 -21 -7 -13 -8 -24 -8 -41 0 -33 17 -35 31 -6 47 33 17 40 38 21 66 -25
38 -98 45 -124 11 -60 -74 -75 -87 -109 -93 -46 -8 -72 -30 -72 -60 0 -31 -37
-65 -65 -58 -26 6 -74 -11 -91 -34 -8 -11 -9 -24 -3 -40 15 -39 -5 -54 -62
-46 -61 8 -99 -13 -99 -54 0 -16 5 -33 11 -39 7 -7 9 -19 6 -27 -7 -18 -42
-22 -52 -6 -3 6 -25 10 -49 10 -44 0 -86 -27 -86 -55 0 -26 50 -55 96 -55 53
0 74 -19 74 -70 0 -47 -11 -55 -76 -55 -56 0 -94 -23 -94 -57 0 -21 55 -58 86
-58 29 0 74 37 74 61 0 10 6 19 13 19 12 0 252 -137 407 -233 41 -26 99 -59
128 -74 65 -34 57 -38 214 106 62 56 134 114 160 127 27 14 49 33 53 46 12 37
46 68 76 68 94 0 119 82 34 110 -19 6 -35 15 -35 19 0 4 13 19 28 34 30 29 62
36 62 14 0 -25 45 -57 79 -57 42 0 70 15 81 45 5 13 28 35 52 48 57 32 354
199 398 224 19 11 46 25 59 32 l23 13 -36 37 c-20 20 -36 40 -36 43 0 3 25 20
55 37 30 17 55 35 55 40 0 5 -60 64 -132 132 -73 68 -164 154 -203 191 -139
132 -180 167 -195 167 -8 -1 -60 -27 -115 -58z m194 -64 c36 -34 135 -127 219
-207 83 -79 152 -148 152 -152 0 -5 -6 -11 -14 -14 -8 -3 -35 17 -66 50 -29
31 -57 56 -62 56 -5 0 -19 -11 -31 -24 -12 -13 -42 -35 -67 -49 -60 -33 -157
-89 -200 -115 -19 -12 -42 -22 -50 -22 -14 0 -90 68 -90 81 0 14 187 109 213
109 42 0 39 15 -13 64 -49 46 -80 58 -80 32 0 -14 -186 -126 -208 -126 -16 0
-74 59 -68 69 14 22 309 181 326 176 41 -13 31 20 -20 65 -51 45 -59 70 -23
70 9 0 46 -28 82 -63z m-153 0 c-9 -7 -113 -66 -231 -132 -118 -66 -215 -125
-215 -130 0 -6 13 -15 30 -20 39 -13 361 -313 358 -333 -5 -30 33 -24 100 16
37 22 85 50 107 62 22 13 95 54 162 91 115 65 163 82 163 59 0 -5 -18 -19 -41
-30 -22 -12 -69 -38 -102 -59 -34 -21 -93 -55 -132 -76 -38 -20 -95 -51 -125
-68 -30 -16 -70 -39 -89 -50 -25 -15 -39 -18 -57 -11 -12 5 -89 72 -170 149
-81 77 -176 166 -211 199 -34 32 -63 62 -63 65 0 4 28 23 63 42 34 20 102 59
151 87 49 29 90 52 91 52 2 0 40 21 86 47 133 73 134 74 138 62 1 -6 -4 -16
-13 -22z m-703 -475 c34 -21 94 -57 132 -79 173 -99 365 -215 370 -223 3 -4
-55 -61 -128 -127 -72 -65 -152 -137 -177 -159 -25 -23 -67 -62 -95 -87 -27
-26 -56 -47 -64 -47 -7 0 -58 27 -113 60 -54 33 -100 60 -102 60 -2 0 -64 36
-137 80 -74 43 -153 91 -177 105 -25 14 -42 31 -40 39 2 8 35 43 74 78 39 35
133 119 209 187 103 93 140 120 146 110 5 -8 9 -17 9 -20 0 -4 -77 -79 -172
-168 -120 -112 -179 -161 -195 -161 -40 0 -25 -24 36 -57 68 -38 91 -41 91
-14 0 18 104 121 122 121 9 0 280 -152 351 -197 20 -13 37 -30 37 -38 0 -8 6
-15 13 -15 19 1 139 118 132 130 -3 5 -19 10 -35 10 -15 0 -59 17 -97 39 -37
21 -99 55 -138 76 -38 21 -90 52 -114 68 l-43 29 53 54 c33 33 62 54 76 54 12
0 25 5 28 11 8 12 -7 24 -83 64 -31 16 -59 31 -61 32 -6 3 10 23 20 23 5 0 38
-17 72 -38z"/>
<path d="M3529 2189 c-14 -14 -18 -27 -13 -42 10 -35 22 -42 74 -42 52 0 64 7
74 42 10 33 -25 63 -74 63 -27 0 -47 -7 -61 -21z"/>
<path d="M3857 2192 c-51 -56 24 -114 106 -83 14 6 29 20 32 32 17 53 -98 95
-138 51z"/>
<path d="M4180 2190 c-26 -26 -25 -55 2 -74 47 -33 138 -10 138 35 0 32 -36
59 -80 59 -27 0 -47 -7 -60 -20z"/>
<path d="M4507 2192 c-36 -40 -17 -81 41 -89 48 -6 92 16 92 47 0 51 -97 82
-133 42z"/>
<path d="M4360 2083 c-45 -23 -50 -54 -14 -82 32 -25 64 -27 104 -6 51 26 33
84 -30 99 -15 4 -39 -1 -60 -11z"/>
<path d="M3373 2073 c-13 -8 -23 -24 -23 -33 0 -23 45 -60 72 -60 33 0 78 32
78 56 0 48 -78 72 -127 37z"/>
<path d="M3703 2078 c-43 -21 -39 -59 8 -83 15 -8 35 -15 44 -15 26 0 75 39
75 60 0 41 -75 63 -127 38z"/>
<path d="M4023 2078 c-35 -17 -31 -63 7 -83 38 -20 65 -19 101 2 79 47 -23
122 -108 81z"/>
<path d="M4666 2069 c-14 -11 -26 -25 -26 -30 0 -19 53 -59 77 -59 40 0 83 28
83 54 0 54 -83 75 -134 35z"/>
<path d="M9714 2010 c-52 -5 -101 -30 -111 -56 -8 -22 13 -63 39 -73 13 -5 56
-19 96 -31 72 -21 93 -42 53 -55 -23 -7 -71 4 -87 20 -7 6 -35 12 -63 14 -58
2 -67 -13 -29 -49 34 -31 86 -43 176 -39 92 5 135 27 140 73 5 39 -19 60 -91
81 -34 9 -73 21 -87 25 -14 3 -25 13 -25 21 0 17 50 17 139 0 32 -7 61 -10 63
-7 8 7 -17 45 -36 55 -29 16 -121 27 -177 21z"/>
<path d="M8986 1965 c-15 -25 -32 -45 -38 -45 -6 0 -26 18 -45 40 -31 36 -39
40 -81 40 -83 0 -83 -10 3 -93 70 -67 78 -78 82 -121 l6 -46 59 0 60 0 -7 49
c-6 47 -4 53 42 123 27 40 53 79 57 86 5 9 -7 12 -52 12 l-60 0 -26 -45z"/>
<path d="M3535 1958 c-26 -23 -27 -26 -14 -54 13 -27 18 -29 69 -29 49 0 56 3
70 27 14 26 13 29 -6 48 -33 33 -85 37 -119 8z"/>
<path d="M3870 1967 c-16 -8 -26 -23 -28 -40 -5 -43 13 -57 72 -57 42 1 54 5
69 25 40 55 -43 107 -113 72z"/>
<path d="M4199 1973 c-9 -2 -22 -15 -30 -29 -16 -31 -5 -53 36 -73 40 -19 100
0 109 34 14 55 -42 88 -115 68z"/>
<path d="M4512 1964 c-25 -17 -30 -65 -8 -83 24 -20 92 -18 115 3 28 26 26 50
-5 75 -32 25 -71 27 -102 5z"/>
<path d="M4836 1959 c-52 -41 -21 -89 57 -89 38 0 49 4 62 24 40 60 -57 113
-119 65z"/>
<path d="M10096 1954 c-3 -11 -13 -57 -22 -104 -9 -47 -18 -97 -21 -112 -5
-25 -2 -27 38 -32 263 -33 279 -32 279 4 0 26 -6 28 -105 37 -71 7 -80 10 -80
28 0 19 6 20 81 17 68 -2 83 1 88 14 11 30 -13 44 -74 44 -38 0 -62 5 -70 15
-25 30 -1 37 95 30 90 -6 92 -6 98 16 3 12 4 26 2 29 -2 4 -46 10 -97 14 -51
3 -118 9 -149 12 -50 6 -58 4 -63 -12z"/>
<path d="M8110 1930 c-103 -13 -157 -60 -132 -115 16 -34 50 -46 160 -52 78
-5 92 -9 90 -22 -4 -19 -54 -31 -85 -20 -33 12 -123 -1 -123 -17 0 -23 57 -44
119 -45 86 -2 158 19 187 54 30 36 30 49 0 83 -22 26 -30 28 -125 34 -107 6
-140 19 -101 40 14 7 39 9 66 5 47 -7 114 2 114 16 0 14 -43 36 -80 42 -19 2
-60 1 -90 -3z"/>
<path d="M10564 1863 c-14 -32 -35 -83 -46 -113 -12 -30 -25 -60 -30 -67 -5
-6 -5 -13 -1 -16 24 -14 168 -39 230 -40 62 0 78 4 112 26 57 38 86 108 65
161 -14 36 -111 73 -267 100 l-38 7 -25 -58z m200 -48 c25 -11 16 -83 -14
-107 -24 -20 -105 -25 -115 -8 -8 13 22 106 41 124 14 14 35 12 88 -9z"/>
<path d="M4361 1849 c-43 -26 -48 -45 -21 -75 34 -35 101 -34 129 2 30 38 13
66 -48 84 -22 6 -37 3 -60 -11z"/>
<path d="M3385 1848 c-40 -23 -45 -48 -15 -78 40 -40 130 -15 130 35 0 45 -68
70 -115 43z"/>
<path d="M3711 1847 c-42 -21 -48 -43 -21 -72 30 -32 86 -34 118 -5 31 29 28
57 -8 75 -35 18 -57 19 -89 2z"/>
<path d="M4030 1847 c-34 -17 -39 -60 -8 -81 46 -33 138 -10 138 34 0 25 -46
60 -79 60 -14 0 -37 -6 -51 -13z"/>
<path d="M4683 1850 c-12 -5 -27 -18 -33 -30 -9 -17 -7 -24 14 -45 29 -29 80
-33 114 -9 63 44 -17 115 -95 84z"/>
<path d="M7633 1823 l-53 -16 0 -139 c0 -128 1 -139 18 -134 9 3 34 8 55 12
27 4 37 11 37 24 0 11 10 21 23 25 12 3 39 11 59 17 32 9 41 9 57 -6 15 -14
26 -15 60 -7 24 5 46 12 49 16 4 4 -11 23 -33 43 -87 79 -209 182 -214 181 -3
0 -30 -8 -58 -16z m97 -118 c29 -30 32 -37 20 -45 -8 -5 -27 -10 -42 -10 -26
0 -28 3 -28 45 0 25 4 45 8 45 4 0 24 -16 42 -35z"/>
<path d="M11025 1689 c-37 -66 -66 -121 -64 -123 2 -2 67 -19 144 -39 l140
-36 18 21 c9 11 17 24 17 28 0 4 -33 15 -74 25 -91 21 -100 27 -92 53 8 23 33
22 111 -4 37 -13 41 -12 57 7 10 12 16 24 13 28 -2 4 -29 14 -60 21 -61 15
-85 34 -67 52 9 9 33 6 99 -11 83 -22 88 -22 100 -5 7 10 12 23 10 28 -3 10
-235 75 -269 76 -11 0 -39 -40 -83 -121z"/>
<path d="M4204 1736 c-28 -13 -44 -33 -44 -56 0 -22 46 -50 82 -50 67 0 104
63 56 94 -37 23 -61 26 -94 12z"/>
<path d="M3538 1728 c-8 -7 -18 -21 -22 -31 -8 -24 35 -67 68 -67 28 0 76 19
76 31 0 4 2 14 5 21 3 8 -4 24 -15 36 -24 25 -86 30 -112 10z"/>
<path d="M3857 1722 c-23 -26 -21 -58 5 -76 42 -29 106 -17 129 25 28 52 -92
97 -134 51z"/>
<path d="M4508 1729 c-11 -6 -18 -22 -18 -39 0 -59 86 -82 131 -34 22 23 23
27 8 52 -12 22 -22 27 -59 29 -25 2 -53 -2 -62 -8z"/>
<path d="M7110 1673 c-19 -8 -37 -17 -39 -19 -8 -8 171 -235 182 -231 7 2 63
22 125 43 61 21 112 43 112 49 0 6 -6 20 -14 30 -13 18 -18 18 -55 7 -136 -41
-122 -39 -140 -12 -41 64 -109 145 -122 147 -8 1 -30 -5 -49 -14z"/>
<path d="M11465 1584 c-44 -57 -81 -111 -83 -118 -2 -9 14 -20 42 -29 l45 -16
33 40 c37 44 38 45 84 23 37 -17 42 -38 19 -68 -8 -11 -15 -24 -15 -28 0 -10
62 -38 84 -38 24 0 59 67 52 101 -5 25 -3 29 18 29 66 0 102 83 50 116 -25 17
-226 94 -241 94 -5 -1 -44 -48 -88 -106z m223 -10 c27 -18 28 -30 2 -44 -14
-8 -32 -8 -60 0 -48 13 -53 21 -33 49 17 25 47 23 91 -5z"/>
<path d="M3407 1619 c-59 -16 -74 -51 -37 -84 45 -41 134 -10 128 44 -4 31
-50 52 -91 40z"/>
<path d="M3709 1615 c-33 -18 -42 -40 -28 -66 22 -41 92 -47 132 -12 24 23 21
48 -9 72 -31 24 -58 26 -95 6z"/>
<path d="M4033 1614 c-45 -22 -46 -62 -2 -88 72 -43 174 32 105 77 -38 25 -68
28 -103 11z"/>
<path d="M4362 1615 c-40 -18 -49 -38 -28 -70 34 -52 146 -36 146 21 0 29 -35
63 -65 63 -11 0 -35 -6 -53 -14z"/>
<path d="M6855 1574 c-33 -14 -84 -36 -113 -50 -29 -13 -57 -24 -62 -24 -5 0
-12 -5 -15 -10 -9 -14 183 -220 204 -220 24 0 245 97 249 109 4 12 -22 41 -36
41 -6 0 -42 -14 -82 -30 -71 -31 -103 -32 -113 -5 -4 9 15 22 59 41 35 15 64
31 64 35 0 4 -10 15 -21 23 -22 15 -36 13 -106 -20 -38 -18 -67 -15 -71 8 -2
11 16 23 67 43 74 29 83 41 54 68 -17 14 -23 13 -78 -9z"/>
<path d="M11903 1424 c-54 -58 -99 -109 -101 -114 -3 -8 70 -40 93 -40 8 0 18
7 22 15 5 8 48 54 96 103 48 49 87 92 87 95 0 5 -86 47 -95 47 -2 0 -48 -48
-102 -106z"/>
<path d="M3545 1498 c-40 -23 -45 -48 -15 -78 40 -40 140 -15 140 34 0 22 -49
56 -79 56 -14 0 -35 -6 -46 -12z"/>
<path d="M3863 1495 c-48 -34 -15 -97 50 -97 104 0 114 95 11 108 -27 4 -46 0
-61 -11z"/>
<path d="M4182 1491 c-64 -55 31 -128 106 -82 60 38 30 101 -49 101 -21 0 -45
-8 -57 -19z"/>
<path d="M9977 1470 c-140 -25 -269 -80 -333 -142 -40 -39 -42 -39 -140 -47
-54 -4 -109 -13 -120 -19 -12 -6 -104 -16 -205 -22 -101 -5 -229 -14 -284 -20
-55 -5 -188 -12 -295 -15 -107 -3 -262 -10 -345 -15 -82 -5 -240 -10 -350 -10
-110 -1 -246 -7 -302 -14 -156 -19 -153 -31 17 -71 l115 -28 310 7 c533 11
674 17 1045 46 58 5 150 11 205 15 71 5 116 13 155 30 94 40 275 56 560 49
280 -7 539 6 615 32 62 21 115 59 115 83 0 40 -85 96 -195 129 -58 17 -488 26
-568 12z m518 -75 c80 -18 112 -44 94 -76 -6 -11 -22 -25 -37 -31 -34 -13
-740 -19 -764 -6 -28 14 -21 41 20 69 79 55 174 69 432 64 122 -2 209 -9 255
-20z m-1487 -211 c22 -15 22 -17 6 -35 -21 -23 -42 -24 -72 -3 -22 15 -22 17
-6 35 21 23 42 24 72 3z"/>
<path d="M7712 1459 c2 -7 78 -33 168 -59 91 -26 197 -56 235 -68 39 -12 140
-42 225 -65 154 -43 156 -43 260 -35 58 4 146 11 195 14 104 8 92 15 -65 38
-52 8 -239 44 -415 81 -478 98 -611 119 -603 94z"/>
<path d="M6465 1419 c-16 -11 -69 -41 -117 -67 -48 -26 -88 -52 -88 -58 0 -7
11 -19 25 -28 24 -16 28 -16 70 5 30 15 48 19 57 12 7 -5 47 -37 89 -71 42
-34 81 -62 87 -62 20 0 82 34 79 43 -1 5 -38 39 -82 76 -43 36 -80 71 -82 76
-1 6 14 19 33 31 l37 21 -23 21 c-29 27 -46 27 -85 1z"/>
<path d="M3370 1370 c-26 -26 -25 -55 2 -74 48 -34 128 -9 128 39 0 50 -90 75
-130 35z"/>
<path d="M3692 1370 c-12 -12 -22 -27 -22 -35 0 -21 49 -55 80 -55 33 0 80 35
80 60 0 45 -98 67 -138 30z"/>
<path d="M4022 1374 c-48 -33 -13 -94 54 -94 46 0 64 9 75 38 21 55 -72 96
-129 56z"/>
<path d="M12280 1354 c-30 -14 -103 -46 -163 -71 -59 -25 -109 -48 -112 -52
-2 -4 14 -18 35 -30 33 -18 43 -20 62 -10 17 9 28 8 57 -7 53 -27 69 -43 64
-62 -3 -13 6 -23 32 -35 20 -9 40 -17 45 -17 11 0 130 232 130 252 0 10 -78
58 -92 58 -2 0 -28 -12 -58 -26z m30 -78 c0 -15 -44 -76 -55 -76 -7 0 -23 8
-36 19 l-23 18 39 21 c37 19 75 28 75 18z"/>
<path d="M5995 1353 c-55 -6 -62 -17 -32 -47 45 -45 137 -23 137 33 0 22 -8
23 -105 14z"/>
<path d="M3554 1266 c-36 -16 -45 -32 -33 -64 17 -45 98 -52 134 -12 24 26 11
59 -31 76 -39 16 -32 16 -70 0z"/>
<path d="M3885 1270 c-53 -20 -59 -76 -12 -98 57 -27 141 13 118 55 -20 39
-68 58 -106 43z"/>
<path d="M4215 1273 c-58 -14 -72 -68 -26 -96 36 -21 63 -22 101 -2 68 35 6
116 -75 98z"/>
<path d="M5818 1264 c-22 -12 -28 -22 -28 -49 0 -31 3 -35 40 -46 30 -9 46 -9
65 -1 50 23 46 83 -6 101 -39 13 -38 14 -71 -5z"/>
<path d="M6156 1270 c-84 -26 -41 -123 47 -106 64 13 75 49 26 90 -33 28 -31
28 -73 16z"/>
<path d="M3388 1149 c-55 -21 -40 -90 23 -104 39 -9 83 20 87 58 3 20 -3 29
-27 41 -34 18 -45 19 -83 5z"/>
<path d="M3709 1145 c-50 -27 -48 -62 7 -91 34 -19 35 -18 72 1 49 27 55 63
13 88 -35 20 -57 21 -92 2z"/>
<path d="M4033 1145 c-27 -11 -33 -20 -33 -43 0 -24 7 -33 34 -46 45 -21 62
-20 97 5 36 25 37 43 3 74 -30 28 -55 31 -101 10z"/>
<path d="M5665 1150 c-31 -12 -47 -37 -40 -60 7 -22 53 -50 83 -50 28 0 72 38
72 62 0 43 -64 69 -115 48z"/>
<path d="M5978 1144 c-39 -21 -38 -64 1 -87 38 -22 57 -21 92 4 36 25 37 51 3
78 -31 25 -58 26 -96 5z"/>
<path d="M6296 1139 c-30 -24 -33 -49 -8 -72 29 -27 68 -31 101 -11 39 23 39
36 -1 66 -49 36 -64 39 -92 17z"/>
<path d="M9265 1100 c-27 -5 -83 -9 -122 -9 -42 -1 -73 -5 -73 -11 0 -5 8 -10
18 -10 10 0 52 -9 93 -21 41 -11 101 -25 134 -29 63 -9 208 -55 272 -87 36
-17 38 -20 35 -63 -4 -72 4 -86 61 -119 118 -67 335 -97 486 -67 97 20 131 35
160 72 27 34 26 53 -1 94 -52 76 -193 122 -444 145 -111 10 -190 24 -264 45
-58 17 -131 35 -162 41 -32 6 -58 15 -58 20 0 10 -63 10 -135 -1z m769 -190
c88 -14 138 -37 168 -77 32 -42 26 -63 -25 -90 -40 -21 -206 -23 -287 -3 -121
29 -189 74 -170 110 30 56 174 83 314 60z"/>
<path d="M6610 1072 c0 -11 45 -32 66 -32 8 0 25 5 37 12 21 11 21 11 2 19
-27 10 -105 11 -105 1z"/>
<path d="M3538 1028 c-28 -22 -31 -55 -9 -77 28 -28 94 -28 121 -1 26 26 25
42 -3 68 -26 25 -84 30 -109 10z"/>
<path d="M3862 1024 c-49 -34 -12 -94 58 -94 49 0 87 38 71 69 -23 42 -87 54
-129 25z"/>
<path d="M4182 1024 c-48 -34 -9 -98 59 -96 104 3 103 112 -1 112 -20 0 -46
-7 -58 -16z"/>
<path d="M4514 1032 c-24 -16 -35 -51 -22 -71 30 -49 148 -35 148 18 0 31 -38
61 -78 61 -20 0 -42 -4 -48 -8z"/>
<path d="M5480 1020 c-11 -11 -20 -29 -20 -39 0 -57 133 -70 154 -16 6 17 -9
55 -28 67 -23 16 -86 8 -106 -12z"/>
<path d="M5807 1022 c-39 -43 -10 -91 53 -91 19 0 43 6 53 13 22 17 22 58 -1
79 -25 23 -85 22 -105 -1z"/>
<path d="M6132 1024 c-47 -33 -13 -94 53 -94 17 0 41 7 53 16 47 33 13 94 -53
94 -17 0 -41 -7 -53 -16z"/>
<path d="M6450 1020 c-37 -37 -14 -79 49 -87 77 -11 118 44 65 86 -34 27 -88
27 -114 1z"/>
<path d="M6776 1021 c-26 -29 -17 -63 22 -83 61 -30 130 9 110 61 -12 34 -25
41 -74 41 -28 0 -46 -6 -58 -19z"/>
<path d="M7094 1013 c-32 -32 -5 -72 54 -80 49 -7 82 15 82 52 0 19 -8 23 -61
32 -49 8 -63 7 -75 -4z"/>
<path d="M7415 972 c-13 -13 31 -42 64 -42 37 0 70 14 59 25 -8 9 -117 23
-123 17z"/>
<path d="M4377 919 c-88 -24 -67 -104 28 -104 48 0 75 18 75 50 0 39 -55 68
-103 54z"/>
<path d="M3370 902 c-42 -34 -3 -92 61 -92 31 0 69 30 69 55 0 51 -84 74 -130
37z"/>
<path d="M3703 910 c-17 -7 -23 -18 -23 -38 0 -35 17 -51 62 -58 38 -7 88 25
88 56 0 40 -71 62 -127 40z"/>
<path d="M4022 904 c-65 -45 27 -121 101 -83 46 25 50 62 7 84 -37 19 -80 19
-108 -1z"/>
<path d="M4664 897 c-24 -21 -25 -25 -13 -44 14 -23 50 -43 75 -43 33 0 74 30
74 55 0 53 -87 74 -136 32z"/>
<path d="M5311 894 c-24 -30 -18 -50 20 -69 41 -22 77 -18 104 10 31 31 31 39
-1 64 -39 31 -97 28 -123 -5z"/>
<path d="M5642 904 c-48 -33 -9 -89 63 -89 49 0 75 18 75 51 0 30 -35 54 -80
54 -20 0 -46 -7 -58 -16z"/>
<path d="M5968 909 c-26 -15 -23 -64 4 -83 31 -22 70 -20 102 5 32 25 33 46 4
70 -23 21 -82 25 -110 8z"/>
<path d="M6292 904 c-31 -22 -28 -56 7 -77 41 -24 78 -21 106 8 31 30 31 39 3
65 -26 24 -84 27 -116 4z"/>
<path d="M6612 900 c-28 -27 -28 -35 4 -67 21 -21 32 -25 65 -20 49 6 69 22
69 53 0 50 -95 74 -138 34z"/>
<path d="M6940 902 c-43 -35 -3 -92 64 -92 30 0 76 36 76 60 0 46 -96 67 -140
32z"/>
<path d="M7260 900 c-11 -11 -20 -26 -20 -34 0 -22 49 -56 80 -56 30 0 80 34
80 54 0 7 -10 22 -23 34 -30 29 -89 30 -117 2z"/>
<path d="M7584 895 c-21 -21 -23 -27 -12 -44 13 -21 49 -41 74 -41 33 0 74 30
74 55 0 54 -91 75 -136 30z"/>
<path d="M7903 899 c-20 -20 -15 -46 13 -68 32 -25 64 -27 104 -6 34 18 42 60
13 69 -51 14 -119 16 -130 5z"/>
<path d="M8220 861 c0 -20 34 -51 56 -51 13 0 36 48 29 61 -4 5 -24 9 -46 9
-32 0 -39 -3 -39 -19z"/>
<path d="M3553 799 c-38 -11 -50 -41 -30 -73 31 -46 116 -40 139 9 10 22 9 29
-8 45 -24 24 -61 31 -101 19z"/>
<path d="M3870 797 c-18 -9 -26 -22 -28 -45 -3 -29 1 -34 32 -47 44 -19 92
-10 112 21 14 20 14 25 -1 47 -9 14 -30 27 -47 31 -39 8 -39 8 -68 -7z"/>
<path d="M4215 803 c-11 -3 -28 -12 -37 -21 -57 -50 37 -116 111 -78 69 36 8
118 -74 99z"/>
<path d="M4520 798 c-29 -16 -37 -54 -16 -83 29 -41 136 -13 136 35 0 41 -75
71 -120 48z"/>
<path d="M4860 803 c-26 -10 -50 -35 -50 -53 0 -29 38 -55 81 -54 43 2 64 14
72 44 10 39 -57 80 -103 63z"/>
<path d="M5173 800 c-55 -23 -45 -87 16 -103 70 -18 128 40 85 84 -23 22 -71
32 -101 19z"/>
<path d="M5498 799 c-54 -20 -48 -82 10 -100 47 -13 88 1 104 36 10 22 9 29
-8 44 -24 24 -71 33 -106 20z"/>
<path d="M5813 794 c-26 -19 -31 -65 -10 -83 26 -21 75 -24 102 -7 27 18 35
66 13 84 -24 19 -82 23 -105 6z"/>
<path d="M6143 794 c-25 -13 -33 -23 -33 -44 0 -37 23 -53 75 -53 50 0 75 16
75 47 0 52 -61 78 -117 50z"/>
<path d="M6482 803 c-12 -2 -30 -15 -38 -29 -15 -22 -15 -26 -1 -48 20 -30 60
-40 103 -26 87 29 29 122 -64 103z"/>
<path d="M6792 794 c-29 -12 -33 -18 -30 -46 3 -29 9 -35 44 -47 34 -12 44
-12 69 0 88 43 9 132 -83 93z"/>
<path d="M7121 797 c-54 -27 -53 -68 2 -95 31 -15 85 -5 100 19 17 27 0 66
-34 78 -39 13 -39 14 -68 -2z"/>
<path d="M7443 795 c-27 -11 -33 -20 -33 -45 0 -26 6 -33 36 -46 55 -23 114 5
114 53 0 18 -9 28 -35 39 -41 17 -42 17 -82 -1z"/>
<path d="M7772 800 c-12 -5 -27 -21 -34 -35 -10 -22 -9 -29 10 -48 39 -38 142
-18 142 28 0 40 -72 73 -118 55z"/>
<path d="M8093 800 c-35 -14 -47 -47 -28 -76 19 -30 52 -31 105 -4 54 27 52
58 -3 79 -33 13 -44 13 -74 1z"/>
<path d="M3382 678 c-34 -17 -40 -57 -12 -80 29 -24 92 -24 113 0 50 55 -27
115 -101 80z"/>
<path d="M3713 680 c-27 -11 -45 -43 -37 -65 14 -36 91 -48 132 -19 63 44 -17
115 -95 84z"/>
<path d="M4028 674 c-34 -18 -37 -53 -8 -79 39 -35 140 -10 140 35 0 23 -54
60 -85 60 -11 -1 -32 -8 -47 -16z"/>
<path d="M4370 683 c-8 -3 -23 -12 -32 -21 -57 -49 55 -112 120 -66 60 42 -13
114 -88 87z"/>
<path d="M4678 674 c-35 -18 -37 -56 -6 -78 52 -36 137 -5 125 46 -7 25 -43
48 -75 48 -9 -1 -29 -8 -44 -16z"/>
<path d="M5005 678 c-40 -23 -45 -48 -15 -78 27 -27 89 -27 118 0 29 27 28 44
-4 69 -29 23 -68 27 -99 9z"/>
<path d="M5328 674 c-33 -17 -37 -53 -10 -77 28 -26 94 -22 121 6 26 29 20 52
-20 72 -35 19 -56 18 -91 -1z"/>
<path d="M5660 679 c-44 -18 -52 -47 -20 -79 41 -41 140 -16 140 35 0 45 -61
67 -120 44z"/>
<path d="M5983 680 c-41 -17 -49 -61 -15 -87 22 -18 83 -16 110 3 29 20 28 48
-4 73 -28 22 -55 25 -91 11z"/>
<path d="M6302 678 c-34 -17 -40 -57 -12 -80 40 -32 122 -17 134 26 13 46 -65
81 -122 54z"/>
<path d="M6640 683 c-24 -9 -50 -35 -50 -50 0 -7 9 -22 20 -33 25 -25 101 -28
124 -4 48 47 -23 113 -94 87z"/>
<path d="M6947 674 c-42 -23 -24 -34 54 -34 72 0 81 6 51 33 -23 21 -68 21
-105 1z"/>
<path d="M7270 672 c-33 -27 -20 -37 49 -40 77 -4 89 3 60 34 -27 29 -77 32
-109 6z"/>
<path d="M7597 674 c-46 -25 -28 -39 48 -37 37 2 71 5 74 8 10 11 -43 45 -69
44 -14 0 -38 -7 -53 -15z"/>
<path d="M7920 675 l-25 -14 26 -1 c42 0 89 12 83 21 -8 14 -56 10 -84 -6z"/>
<path d="M3530 550 c-11 -11 -20 -23 -20 -27 1 -26 56 -63 92 -63 30 0 68 31
68 55 0 29 -38 55 -80 55 -27 0 -47 -7 -60 -20z"/>
<path d="M3858 556 c-21 -15 -24 -59 -5 -74 39 -33 108 -25 134 14 17 26 16
27 -11 50 -31 27 -90 32 -118 10z"/>
<path d="M4182 554 c-47 -33 -8 -94 60 -94 40 0 78 27 78 55 0 47 -90 73 -138
39z"/>
<path d="M4507 552 c-56 -62 54 -130 111 -69 27 29 28 41 2 67 -26 26 -90 27
-113 2z"/>
<path d="M4830 550 c-11 -11 -20 -25 -20 -31 0 -63 122 -81 149 -22 10 22 9
29 -10 49 -29 31 -90 33 -119 4z"/>
<path d="M5158 559 c-28 -16 -23 -65 7 -85 45 -30 125 -2 125 43 0 7 -9 22
-20 33 -22 22 -82 27 -112 9z"/>
<path d="M5479 552 c-33 -27 -19 -57 22 -48 18 3 51 6 75 6 49 0 53 6 24 38
-26 28 -88 30 -121 4z"/>
<path d="M5808 556 c-10 -7 -18 -21 -18 -30 0 -13 12 -16 70 -16 54 0 70 3 70
14 0 41 -83 62 -122 32z"/>
<path d="M6127 552 c-10 -10 -17 -26 -17 -35 0 -14 12 -17 75 -17 68 0 75 2
75 19 0 46 -100 70 -133 33z"/>
<path d="M6450 550 c-22 -22 -25 -36 -10 -45 13 -8 150 5 150 14 0 4 -9 17
-20 29 -27 29 -92 30 -120 2z"/>
<path d="M7617 463 c-4 -3 -7 -64 -7 -135 l0 -129 43 3 42 3 5 95 5 95 22 -47
c12 -26 27 -65 33 -85 15 -58 23 -65 65 -61 l37 3 33 90 c18 50 36 90 41 90 5
0 10 -42 12 -92 l3 -93 39 0 39 0 3 119 c2 65 2 126 0 135 -3 13 -17 16 -72
16 -78 0 -78 0 -109 -93 -10 -28 -22 -52 -27 -54 -5 -2 -20 25 -33 59 -14 35
-29 69 -34 76 -10 13 -128 18 -140 5z"/>
<path d="M8120 381 c0 -50 5 -101 12 -115 18 -40 83 -66 164 -65 90 0 133 16
162 59 20 30 22 44 20 120 l-3 85 -50 0 -50 0 -2 -65 c-5 -113 -10 -127 -48
-140 -27 -9 -40 -8 -64 4 -30 16 -30 17 -33 109 l-3 92 -52 3 -53 3 0 -90z"/>
<path d="M8564 457 c-2 -7 -3 -67 -2 -133 l3 -119 155 0 155 0 0 25 c0 25 -1
25 -97 28 l-98 3 0 29 0 30 90 0 c89 0 90 0 90 25 0 25 -1 25 -89 25 -89 0
-105 6 -94 38 3 8 32 12 98 12 76 0 94 3 99 16 3 9 4 20 0 25 -3 5 -73 9 -155
9 -114 0 -151 -3 -155 -13z"/>
<path d="M8955 457 c-3 -7 -4 -67 -3 -133 l3 -119 130 0 c142 0 184 11 205 50
16 30 8 50 -30 73 l-30 19 25 21 c34 30 32 58 -6 81 -26 16 -53 19 -160 20
-100 2 -130 -1 -134 -12z m213 -61 c5 -24 -14 -36 -61 -36 -39 0 -55 16 -43
46 9 24 100 16 104 -10z m8 -91 c19 -15 19 -15 -5 -35 -23 -20 -64 -26 -95
-14 -16 6 -22 45 -9 57 12 13 89 7 109 -8z"/>
<path d="M9375 457 c-3 -7 -4 -67 -3 -133 l3 -119 143 -3 142 -3 0 30 c0 35
-13 41 -81 35 -97 -9 -98 -8 -101 104 l-3 97 -48 3 c-33 2 -49 -1 -52 -11z"/>
<path d="M9734 457 c-2 -7 -3 -67 -2 -133 l3 -119 153 -3 153 -3 -3 28 -3 28
-97 3 -98 3 0 29 0 30 90 0 c89 0 90 0 90 25 0 25 -1 25 -90 25 -89 0 -90 0
-90 25 l0 25 101 0 c98 0 100 0 97 23 -3 22 -6 22 -151 25 -116 2 -149 0 -153
-11z"/>
<path d="M10122 338 l3 -133 50 0 50 0 3 53 c3 48 5 52 27 52 18 0 36 -15 66
-55 l41 -55 59 0 c33 0 59 4 59 8 0 4 -22 32 -50 62 -27 30 -50 55 -50 56 0 1
14 7 30 14 17 7 33 22 36 35 18 73 -27 95 -199 95 l-128 0 3 -132z m216 58 c5
-25 -14 -36 -65 -36 -41 0 -43 1 -43 31 l0 30 52 -3 c42 -2 54 -7 56 -22z"/>
<path d="M10540 336 l0 -136 55 0 56 0 -3 133 -3 132 -52 3 -53 3 0 -135z"/>
<path d="M10837 448 c-21 -33 -127 -237 -127 -243 0 -3 22 -5 49 -5 41 0 51 4
65 25 15 23 23 25 86 25 39 0 70 -4 70 -9 0 -5 7 -17 16 -25 19 -20 104 -22
104 -3 0 6 -29 66 -63 132 l-63 120 -62 3 c-54 3 -62 1 -75 -20z m93 -88 c11
-23 18 -45 15 -50 -10 -16 -75 -12 -75 4 0 16 28 86 35 86 2 0 14 -18 25 -40z"/>
<path d="M4364 448 c-21 -12 -44 -37 -44 -50 0 -4 36 -8 80 -8 71 0 80 2 80
18 0 32 -79 59 -116 40z"/>
<path d="M3698 436 c-28 -21 -21 -35 25 -56 66 -30 107 -22 107 21 0 41 -93
65 -132 35z"/>
<path d="M4022 434 c-12 -8 -22 -24 -22 -35 0 -17 7 -19 74 -19 60 0 75 3 80
17 16 42 -85 70 -132 37z"/>
<path d="M4667 432 c-27 -30 -20 -34 46 -27 74 9 82 12 66 31 -17 21 -92 18
-112 -4z"/>
<path d="M5033 443 c9 -2 25 -2 35 0 9 3 1 5 -18 5 -19 0 -27 -2 -17 -5z"/>
</g>
</svg>
